<svg width="78" height="14" viewBox="0 0 78 14" fill="none" xmlns="http://www.w3.org/2000/svg">
<path d="M13.8379 3.62109C13.6348 4.48438 11.8066 7.07422 11.8066 7.07422C11.6543 7.32812 11.5781 7.45508 11.8066 7.73438C11.9082 7.86133 13.8125 9.68945 14.0918 10.5527C14.2188 10.9844 14.0156 11.1875 13.584 11.1875H12.0859C11.5273 11.1875 11.3496 10.7559 10.334 9.74023C9.44531 8.87695 9.06445 8.75 8.83594 8.75C8.37891 8.75 8.45508 8.92773 8.45508 10.6289C8.45508 10.9844 8.32812 11.1875 7.38867 11.1875C5.81445 11.1875 4.0625 10.248 2.81836 8.4707C0.964844 5.85547 0.457031 3.90039 0.457031 3.49414C0.457031 3.26562 0.558594 3.0625 0.964844 3.0625H2.46289C2.84375 3.0625 2.99609 3.24023 3.14844 3.64648C3.88477 5.7793 5.10352 7.6582 5.61133 7.6582C5.81445 7.6582 5.89062 7.55664 5.89062 7.07422V4.86523C5.83984 3.84961 5.30664 3.77344 5.30664 3.41797C5.30664 3.24023 5.43359 3.0625 5.6875 3.0625H8.02344C8.35352 3.0625 8.45508 3.24023 8.45508 3.62109V6.5918C8.45508 6.89648 8.60742 7.02344 8.68359 7.02344C8.88672 7.02344 9.03906 6.89648 9.39453 6.56641C10.4609 5.34766 11.2227 3.49414 11.2227 3.49414C11.3242 3.26562 11.502 3.0625 11.8828 3.0625H13.3809C13.8379 3.0625 13.9141 3.31641 13.8379 3.62109ZM53.3965 7.9375H51.4922V13.625H48.9531V7.9375H46.8711V5.60156H48.9531V3.79883C48.9531 1.76758 50.1719 0.625 52.0254 0.625C52.9141 0.625 53.8535 0.802734 53.8535 0.802734V2.80859H52.8125C51.7969 2.80859 51.4922 3.41797 51.4922 4.07812V5.60156H53.752L53.3965 7.9375ZM76.248 4.48438C76.248 4.61133 76.248 4.71289 76.248 4.83984C76.248 8.36914 73.582 12.4062 68.6816 12.4062C67.1582 12.4062 65.7617 11.9746 64.5938 11.2129C64.7969 11.2383 65 11.2637 65.2285 11.2637C66.4727 11.2637 67.6152 10.832 68.5293 10.1211C67.3613 10.0957 66.3711 9.33398 66.041 8.26758C66.2188 8.29297 66.3711 8.31836 66.5488 8.31836C66.7773 8.31836 67.0312 8.26758 67.2344 8.2168C66.0156 7.96289 65.1016 6.89648 65.1016 5.60156V5.57617C65.457 5.7793 65.8887 5.88086 66.3203 5.90625C65.584 5.42383 65.127 4.61133 65.127 3.69727C65.127 3.18945 65.2539 2.73242 65.4824 2.35156C66.8027 3.95117 68.7832 5.01758 70.9922 5.14453C70.9414 4.94141 70.916 4.73828 70.916 4.53516C70.916 3.0625 72.1094 1.86914 73.582 1.86914C74.3438 1.86914 75.0293 2.17383 75.5371 2.70703C76.1211 2.58008 76.7051 2.35156 77.2129 2.04688C77.0098 2.68164 76.6035 3.18945 76.0449 3.51953C76.5781 3.46875 77.1113 3.31641 77.5684 3.11328C77.2129 3.64648 76.7559 4.10352 76.248 4.48438Z" fill="#686868"/>
<path d="M30.4688 4.20508C32.0684 4.20508 33.3887 5.52539 33.3887 7.125C33.3887 8.75 32.0684 10.0449 30.4688 10.0449C28.8438 10.0449 27.5488 8.75 27.5488 7.125C27.5488 5.52539 28.8438 4.20508 30.4688 4.20508ZM30.4688 9.0293C31.5098 9.0293 32.3477 8.19141 32.3477 7.125C32.3477 6.08398 31.5098 5.24609 30.4688 5.24609C29.4023 5.24609 28.5645 6.08398 28.5645 7.125C28.5645 8.19141 29.4277 9.0293 30.4688 9.0293ZM34.1758 4.10352C34.1758 4.48438 33.8711 4.78906 33.4902 4.78906C33.1094 4.78906 32.8047 4.48438 32.8047 4.10352C32.8047 3.72266 33.1094 3.41797 33.4902 3.41797C33.8711 3.41797 34.1758 3.72266 34.1758 4.10352ZM36.1055 4.78906C36.1562 5.72852 36.1562 8.54688 36.1055 9.48633C36.0547 10.4004 35.8516 11.1875 35.1914 11.873C34.5312 12.5332 33.7188 12.7363 32.8047 12.7871C31.8652 12.8379 29.0469 12.8379 28.1074 12.7871C27.1934 12.7363 26.4062 12.5332 25.7207 11.873C25.0605 11.1875 24.8574 10.4004 24.8066 9.48633C24.7559 8.54688 24.7559 5.72852 24.8066 4.78906C24.8574 3.875 25.0605 3.0625 25.7207 2.40234C26.4062 1.74219 27.1934 1.53906 28.1074 1.48828C29.0469 1.4375 31.8652 1.4375 32.8047 1.48828C33.7188 1.53906 34.5312 1.74219 35.1914 2.40234C35.8516 3.0625 36.0547 3.875 36.1055 4.78906ZM34.8867 10.4766C35.1914 9.74023 35.1152 7.96289 35.1152 7.125C35.1152 6.3125 35.1914 4.53516 34.8867 3.77344C34.6836 3.29102 34.3027 2.88477 33.8203 2.70703C33.0586 2.40234 31.2812 2.47852 30.4688 2.47852C29.6309 2.47852 27.8535 2.40234 27.1172 2.70703C26.6094 2.91016 26.2285 3.29102 26.0254 3.77344C25.7207 4.53516 25.7969 6.3125 25.7969 7.125C25.7969 7.96289 25.7207 9.74023 26.0254 10.4766C26.2285 10.9844 26.6094 11.3652 27.1172 11.5684C27.8535 11.873 29.6309 11.7969 30.4688 11.7969C31.2812 11.7969 33.0586 11.873 33.8203 11.5684C34.3027 11.3652 34.709 10.9844 34.8867 10.4766Z" fill="white"/>
</svg>
