<svg width="157" height="21" viewBox="0 0 157 21" fill="none" xmlns="http://www.w3.org/2000/svg">
<path d="M21.2891 5.10938C20.9766 6.4375 18.1641 10.4219 18.1641 10.4219C17.9297 10.8125 17.8125 11.0078 18.1641 11.4375C18.3203 11.6328 21.25 14.4453 21.6797 15.7734C21.875 16.4375 21.5625 16.75 20.8984 16.75H18.5938C17.7344 16.75 17.4609 16.0859 15.8984 14.5234C14.5312 13.1953 13.9453 13 13.5938 13C12.8906 13 13.0078 13.2734 13.0078 15.8906C13.0078 16.4375 12.8125 16.75 11.3672 16.75C8.94531 16.75 6.25 15.3047 4.33594 12.5703C1.48438 8.54688 0.703125 5.53906 0.703125 4.91406C0.703125 4.5625 0.859375 4.25 1.48438 4.25H3.78906C4.375 4.25 4.60938 4.52344 4.84375 5.14844C5.97656 8.42969 7.85156 11.3203 8.63281 11.3203C8.94531 11.3203 9.0625 11.1641 9.0625 10.4219V7.02344C8.98438 5.46094 8.16406 5.34375 8.16406 4.79688C8.16406 4.52344 8.35938 4.25 8.75 4.25H12.3438C12.8516 4.25 13.0078 4.52344 13.0078 5.10938V9.67969C13.0078 10.1484 13.2422 10.3438 13.3594 10.3438C13.6719 10.3438 13.9062 10.1484 14.4531 9.64062C16.0938 7.76562 17.2656 4.91406 17.2656 4.91406C17.4219 4.5625 17.6953 4.25 18.2812 4.25H20.5859C21.2891 4.25 21.4062 4.64062 21.2891 5.10938ZM46.875 6.00781C49.3359 6.00781 51.3672 8.03906 51.3672 10.5C51.3672 13 49.3359 14.9922 46.875 14.9922C44.375 14.9922 42.3828 13 42.3828 10.5C42.3828 8.03906 44.375 6.00781 46.875 6.00781ZM46.875 13.4297C48.4766 13.4297 49.7656 12.1406 49.7656 10.5C49.7656 8.89844 48.4766 7.60938 46.875 7.60938C45.2344 7.60938 43.9453 8.89844 43.9453 10.5C43.9453 12.1406 45.2734 13.4297 46.875 13.4297ZM52.5781 5.85156C52.5781 6.4375 52.1094 6.90625 51.5234 6.90625C50.9375 6.90625 50.4688 6.4375 50.4688 5.85156C50.4688 5.26562 50.9375 4.79688 51.5234 4.79688C52.1094 4.79688 52.5781 5.26562 52.5781 5.85156ZM55.5469 6.90625C55.625 8.35156 55.625 12.6875 55.5469 14.1328C55.4688 15.5391 55.1562 16.75 54.1406 17.8047C53.125 18.8203 51.875 19.1328 50.4688 19.2109C49.0234 19.2891 44.6875 19.2891 43.2422 19.2109C41.8359 19.1328 40.625 18.8203 39.5703 17.8047C38.5547 16.75 38.2422 15.5391 38.1641 14.1328C38.0859 12.6875 38.0859 8.35156 38.1641 6.90625C38.2422 5.5 38.5547 4.25 39.5703 3.23438C40.625 2.21875 41.8359 1.90625 43.2422 1.82812C44.6875 1.75 49.0234 1.75 50.4688 1.82812C51.875 1.90625 53.125 2.21875 54.1406 3.23438C55.1562 4.25 55.4688 5.5 55.5469 6.90625ZM53.6719 15.6562C54.1406 14.5234 54.0234 11.7891 54.0234 10.5C54.0234 9.25 54.1406 6.51562 53.6719 5.34375C53.3594 4.60156 52.7734 3.97656 52.0312 3.70312C50.8594 3.23438 48.125 3.35156 46.875 3.35156C45.5859 3.35156 42.8516 3.23438 41.7188 3.70312C40.9375 4.01562 40.3516 4.60156 40.0391 5.34375C39.5703 6.51562 39.6875 9.25 39.6875 10.5C39.6875 11.7891 39.5703 14.5234 40.0391 15.6562C40.3516 16.4375 40.9375 17.0234 41.7188 17.3359C42.8516 17.8047 45.5859 17.6875 46.875 17.6875C48.125 17.6875 50.8594 17.8047 52.0312 17.3359C52.7734 17.0234 53.3984 16.4375 53.6719 15.6562ZM82.1484 11.75H79.2188V20.5H75.3125V11.75H72.1094V8.15625H75.3125V5.38281C75.3125 2.25781 77.1875 0.5 80.0391 0.5C81.4062 0.5 82.8516 0.773438 82.8516 0.773438V3.85938H81.25C79.6875 3.85938 79.2188 4.79688 79.2188 5.8125V8.15625H82.6953L82.1484 11.75ZM117.305 6.4375C117.305 6.63281 117.305 6.78906 117.305 6.98438C117.305 12.4141 113.203 18.625 105.664 18.625C103.32 18.625 101.172 17.9609 99.375 16.7891C99.6875 16.8281 100 16.8672 100.352 16.8672C102.266 16.8672 104.023 16.2031 105.43 15.1094C103.633 15.0703 102.109 13.8984 101.602 12.2578C101.875 12.2969 102.109 12.3359 102.383 12.3359C102.734 12.3359 103.125 12.2578 103.438 12.1797C101.562 11.7891 100.156 10.1484 100.156 8.15625V8.11719C100.703 8.42969 101.367 8.58594 102.031 8.625C100.898 7.88281 100.195 6.63281 100.195 5.22656C100.195 4.44531 100.391 3.74219 100.742 3.15625C102.773 5.61719 105.82 7.25781 109.219 7.45312C109.141 7.14062 109.102 6.82812 109.102 6.51562C109.102 4.25 110.938 2.41406 113.203 2.41406C114.375 2.41406 115.43 2.88281 116.211 3.70312C117.109 3.50781 118.008 3.15625 118.789 2.6875C118.477 3.66406 117.852 4.44531 116.992 4.95312C117.812 4.875 118.633 4.64062 119.336 4.32812C118.789 5.14844 118.086 5.85156 117.305 6.4375ZM156.445 5.38281C156.914 7.02344 156.914 10.5391 156.914 10.5391C156.914 10.5391 156.914 14.0156 156.445 15.6953C156.211 16.6328 155.469 17.3359 154.57 17.5703C152.891 18 146.25 18 146.25 18C146.25 18 139.57 18 137.891 17.5703C136.992 17.3359 136.25 16.6328 136.016 15.6953C135.547 14.0156 135.547 10.5391 135.547 10.5391C135.547 10.5391 135.547 7.02344 136.016 5.38281C136.25 4.44531 136.992 3.70312 137.891 3.46875C139.57 3 146.25 3 146.25 3C146.25 3 152.891 3 154.57 3.46875C155.469 3.70312 156.211 4.44531 156.445 5.38281ZM144.062 13.7031L149.609 10.5391L144.062 7.375V13.7031Z" fill="#3C4767"/>
<path d="M21.2891 5.10938L20.3188 4.86682L20.3156 4.88034L21.2891 5.10938ZM18.1641 10.4219L17.3471 9.84519L17.3257 9.87553L17.3066 9.90738L18.1641 10.4219ZM18.1641 11.4375L18.945 10.8128L18.938 10.8043L18.1641 11.4375ZM21.6797 15.7734L22.6391 15.4913L22.6353 15.4784L22.6311 15.4656L21.6797 15.7734ZM15.8984 14.5234L16.6055 13.8163L16.6004 13.8112L16.5952 13.8062L15.8984 14.5234ZM4.33594 12.5703L5.15518 11.9968L5.15181 11.9921L4.33594 12.5703ZM4.84375 5.14844L5.789 4.8221L5.7847 4.80965L5.78008 4.79731L4.84375 5.14844ZM9.0625 7.02344H10.0625V6.99845L10.0613 6.9735L9.0625 7.02344ZM14.4531 9.64062L15.1336 10.3734L15.1716 10.3381L15.2057 10.2991L14.4531 9.64062ZM17.2656 4.91406L16.3518 4.50792L16.3461 4.52086L16.3407 4.53395L17.2656 4.91406ZM20.3156 4.88034C20.2724 5.06428 20.1023 5.45402 19.7924 6.0185C19.4998 6.55137 19.1321 7.15315 18.7666 7.72542C18.4024 8.29571 18.0468 8.82665 17.7819 9.21562C17.6496 9.40986 17.5403 9.56809 17.4643 9.67741C17.4264 9.73205 17.3967 9.77444 17.3768 9.80295C17.3668 9.81721 17.3592 9.82799 17.3542 9.8351C17.3517 9.83865 17.3498 9.84129 17.3487 9.84298C17.3481 9.84382 17.3476 9.84443 17.3474 9.8448C17.3472 9.84499 17.3472 9.84511 17.3471 9.84518C17.3471 9.84521 17.3471 9.84521 17.3471 9.84523C17.3471 9.84522 17.3471 9.84519 18.1641 10.4219C18.981 10.9986 18.9811 10.9985 18.9811 10.9984C18.9812 10.9984 18.9812 10.9983 18.9813 10.9982C18.9814 10.998 18.9816 10.9978 18.9818 10.9975C18.9822 10.9969 18.9828 10.9961 18.9835 10.995C18.9851 10.9928 18.9872 10.9897 18.9901 10.9857C18.9957 10.9777 19.004 10.9659 19.0147 10.9507C19.0361 10.9202 19.0672 10.8756 19.1067 10.8187C19.1858 10.705 19.2986 10.5416 19.4349 10.3415C19.7071 9.9419 20.0742 9.39375 20.4522 8.80192C20.8289 8.21208 21.2228 7.56875 21.5455 6.98101C21.8508 6.42489 22.1495 5.81854 22.2625 5.33841L20.3156 4.88034ZM17.3066 9.90738C17.2302 10.0347 16.9901 10.394 16.949 10.8187C16.8973 11.3529 17.1432 11.7689 17.3901 12.0707L18.938 10.8043C18.8865 10.7412 18.8922 10.7344 18.908 10.7731C18.9171 10.7953 18.9285 10.8299 18.9356 10.8749C18.9428 10.9208 18.944 10.9672 18.9397 11.0114C18.9315 11.0964 18.9061 11.1409 18.9169 11.1183C18.9219 11.108 18.9316 11.0894 18.9501 11.057C18.9691 11.0239 18.9911 10.9872 19.0216 10.9364L17.3066 9.90738ZM17.3832 12.0622C17.4426 12.1364 17.5552 12.2506 17.627 12.3241C17.7267 12.4262 17.8507 12.5523 18.002 12.7078C18.3014 13.0156 18.6859 13.4169 19.0766 13.8503C19.4694 14.2859 19.8577 14.7421 20.1689 15.1602C20.4985 15.603 20.6749 15.9163 20.7282 16.0813L22.6311 15.4656C22.4697 14.9665 22.1187 14.4302 21.7733 13.9661C21.4094 13.4771 20.975 12.969 20.562 12.511C20.1471 12.0509 19.743 11.6294 19.4357 11.3134C19.2837 11.1571 19.1498 11.021 19.0578 10.9267C18.9377 10.8038 18.9246 10.7874 18.9449 10.8128L17.3832 12.0622ZM20.7203 16.0556C20.7446 16.1382 20.7342 16.1486 20.7383 16.1072C20.7436 16.054 20.7698 15.9569 20.8488 15.8638C20.9236 15.7756 20.9986 15.7465 21.0133 15.7416C21.0234 15.7383 20.9919 15.75 20.8984 15.75V17.75C21.3376 17.75 21.9528 17.654 22.3738 17.1577C22.8248 16.6263 22.7802 15.9713 22.6391 15.4913L20.7203 16.0556ZM20.8984 15.75H18.5938V17.75H20.8984V15.75ZM18.5938 15.75C18.5222 15.75 18.5009 15.7395 18.4821 15.73C18.4429 15.7101 18.3639 15.6585 18.2074 15.5062C18.0476 15.3506 17.8655 15.1495 17.5947 14.8544C17.3326 14.5688 17.0112 14.222 16.6055 13.8163L15.1913 15.2305C15.5669 15.6061 15.8657 15.9283 16.1212 16.2067C16.3679 16.4755 16.6008 16.7334 16.8121 16.9391C17.0268 17.1481 17.2749 17.3602 17.5775 17.5137C17.9004 17.6775 18.2356 17.75 18.5938 17.75V15.75ZM16.5952 13.8062C15.2256 12.4756 14.3816 12 13.5938 12V14C13.509 14 13.8369 13.915 15.2017 15.2407L16.5952 13.8062ZM13.5938 12C13.4178 12 12.9808 11.9995 12.602 12.2863C12.1896 12.5985 12.0871 13.0527 12.0479 13.3173C12.0062 13.5991 12.0005 13.9507 12.0005 14.3348C12.0005 14.5362 12.0024 14.7663 12.0042 15.0221C12.006 15.2795 12.0078 15.5671 12.0078 15.8906H14.0078C14.0078 15.5598 14.006 15.2664 14.0041 15.0079C14.0023 14.7478 14.0005 14.5271 14.0005 14.3348C14.0005 13.9316 14.0095 13.7241 14.0263 13.6104C14.0457 13.4795 14.0458 13.7018 13.8091 13.881C13.6061 14.0346 13.4182 14 13.5938 14V12ZM12.0078 15.8906C12.0078 15.9822 11.997 15.9599 12.0215 15.8963C12.0578 15.8021 12.1273 15.7234 12.1915 15.6825C12.2309 15.6573 12.2147 15.6813 12.0649 15.7069C11.92 15.7317 11.6984 15.75 11.3672 15.75V17.75C12.0899 17.75 12.7696 17.6862 13.2675 17.3683C13.5612 17.1809 13.7699 16.9216 13.8879 16.615C13.9942 16.3389 14.0078 16.0725 14.0078 15.8906H12.0078ZM11.3672 15.75C9.33535 15.75 6.92189 14.5207 5.15517 11.9969L3.51671 13.1438C5.57811 16.0886 8.55528 17.75 11.3672 17.75V15.75ZM5.15181 11.9921C3.76876 10.0407 2.89699 8.34842 2.37417 7.08532C2.11253 6.45321 1.9401 5.93298 1.83464 5.54557C1.78185 5.35163 1.74727 5.19624 1.72651 5.08065C1.70404 4.95556 1.70312 4.9065 1.70312 4.91406H-0.296875C-0.296875 5.20924 -0.217735 5.62051 -0.0951384 6.07088C0.0349981 6.54895 0.236106 7.14933 0.52622 7.85022C1.10691 9.25314 2.05155 11.0765 3.52007 13.1486L5.15181 11.9921ZM1.70312 4.91406C1.70312 4.86702 1.71542 5.00246 1.58076 5.14273C1.44013 5.28922 1.32464 5.25 1.48438 5.25V3.25C1.01911 3.25 0.513 3.36703 0.137988 3.75766C-0.231047 4.14207 -0.296875 4.60954 -0.296875 4.91406H1.70312ZM1.48438 5.25H3.78906V3.25H1.48438V5.25ZM3.78906 5.25C3.86002 5.25 3.87437 5.25856 3.8567 5.25277C3.83173 5.24459 3.79997 5.22696 3.77557 5.20478C3.75668 5.18762 3.76426 5.18746 3.79165 5.23598C3.82026 5.28666 3.85804 5.36788 3.90742 5.49956L5.78008 4.79731C5.65325 4.4591 5.46855 4.04094 5.12091 3.7249C4.7242 3.36425 4.25109 3.25 3.78906 3.25V5.25ZM3.8985 5.47477C4.48832 7.18322 5.27218 8.79494 6.02212 9.99484C6.39517 10.5917 6.77747 11.1152 7.14232 11.5028C7.32372 11.6955 7.52376 11.8794 7.73769 12.0219C7.93323 12.1522 8.2469 12.3203 8.63281 12.3203V10.3203C8.82342 10.3203 8.90759 10.3981 8.84663 10.3575C8.80406 10.3291 8.72059 10.2615 8.59864 10.132C8.3568 9.87505 8.05307 9.47078 7.71812 8.93484C7.05204 7.86912 6.332 6.39491 5.789 4.8221L3.8985 5.47477ZM8.63281 12.3203C8.78136 12.3203 9.01684 12.3042 9.26289 12.1866C9.53632 12.056 9.7303 11.8456 9.8526 11.6097C10.0472 11.2344 10.0625 10.7752 10.0625 10.4219H8.0625C8.0625 10.5866 8.05567 10.6863 8.04808 10.7432C8.03959 10.8069 8.03619 10.768 8.07709 10.6891C8.10033 10.6443 8.13844 10.5854 8.19777 10.5258C8.25844 10.465 8.32815 10.4167 8.40069 10.382C8.47076 10.3485 8.53125 10.3336 8.57071 10.3268C8.60872 10.3202 8.63221 10.3203 8.63281 10.3203V12.3203ZM10.0625 10.4219V7.02344H8.0625V10.4219H10.0625ZM10.0613 6.9735C10.0117 5.98225 9.71198 5.37646 9.39039 4.93793C9.32009 4.84207 9.25169 4.75818 9.2048 4.70029C9.15135 4.63431 9.12905 4.6058 9.11436 4.5847C9.09662 4.55919 9.16406 4.6492 9.16406 4.79688H7.16406C7.16406 5.21798 7.33405 5.52773 7.47255 5.72683C7.53599 5.81802 7.60524 5.90304 7.65067 5.95913C7.70266 6.02331 7.74046 6.07004 7.77758 6.12066C7.88568 6.26807 8.03519 6.50213 8.06375 7.07337L10.0613 6.9735ZM9.16406 4.79688C9.16406 4.89271 9.13015 5.01032 9.03469 5.11055C8.92672 5.22392 8.80288 5.25 8.75 5.25V3.25C8.30649 3.25 7.88969 3.4128 7.58641 3.73124C7.29564 4.03655 7.16406 4.4276 7.16406 4.79688H9.16406ZM8.75 5.25H12.3438V3.25H8.75V5.25ZM12.3438 5.25C12.3868 5.25 12.3553 5.25663 12.287 5.22899C12.2048 5.1958 12.1189 5.13298 12.0563 5.04647C12.0017 4.97108 11.9934 4.91714 11.9966 4.93252C12.0001 4.94914 12.0078 5.00162 12.0078 5.10938H14.0078C14.0078 4.78074 13.9757 4.28709 13.6762 3.87345C13.3151 3.3749 12.7757 3.25 12.3438 3.25V5.25ZM12.0078 5.10938V9.67969H14.0078V5.10938H12.0078ZM12.0078 9.67969C12.0078 10.0806 12.109 10.451 12.3134 10.7508C12.4783 10.9926 12.8316 11.3438 13.3594 11.3438V9.34375C13.588 9.34375 13.7427 9.4292 13.8097 9.47386C13.8903 9.52761 13.9388 9.58445 13.9659 9.62416C14.0238 9.70915 14.0078 9.74755 14.0078 9.67969H12.0078ZM13.3594 11.3438C13.7693 11.3438 14.0984 11.2005 14.3787 11.0109C14.6206 10.8472 14.8741 10.6144 15.1336 10.3734L13.7727 8.90783C13.6365 9.0343 13.5306 9.13117 13.4414 9.2083C13.3514 9.28609 13.2946 9.32959 13.258 9.35433C13.2234 9.37776 13.2247 9.37207 13.2528 9.36216C13.2872 9.35004 13.3265 9.34375 13.3594 9.34375V11.3438ZM15.2057 10.2991C16.1015 9.27535 16.8472 8.0143 17.3597 7.03959C17.619 6.54648 17.8249 6.1144 17.9665 5.80441C18.0374 5.64922 18.0924 5.52412 18.1301 5.43666C18.149 5.39291 18.1636 5.35854 18.1737 5.33449C18.1788 5.32246 18.1828 5.31301 18.1856 5.30626C18.187 5.30288 18.1881 5.30017 18.1889 5.29815C18.1893 5.29714 18.1897 5.29631 18.19 5.29564C18.1901 5.29531 18.1902 5.29502 18.1903 5.29478C18.1904 5.29466 18.1904 5.2945 18.1905 5.29444C18.1905 5.2943 18.1906 5.29418 17.2656 4.91406C16.3407 4.53395 16.3407 4.53384 16.3408 4.53375C16.3408 4.53373 16.3408 4.53364 16.3408 4.53361C16.3409 4.53354 16.3409 4.53351 16.3409 4.53352C16.3408 4.53355 16.3408 4.53375 16.3406 4.53412C16.3403 4.53486 16.3397 4.53627 16.3389 4.53834C16.3371 4.54249 16.3343 4.54928 16.3304 4.5586C16.3225 4.57723 16.3104 4.60596 16.294 4.64385C16.2613 4.71966 16.2119 4.83198 16.1473 4.97342C16.0179 5.25669 15.8283 5.65469 15.5895 6.10885C15.1059 7.02867 14.4454 8.1309 13.7005 8.98212L15.2057 10.2991ZM18.1794 5.3202C18.2168 5.23624 18.2354 5.2327 18.2162 5.24729C18.2057 5.25521 18.1971 5.25833 18.1977 5.25814C18.1998 5.25749 18.2242 5.25 18.2812 5.25V3.25C17.7979 3.25 17.3641 3.38363 17.0084 3.6531C16.6669 3.91183 16.4707 4.24032 16.3518 4.50792L18.1794 5.3202ZM18.2812 5.25H20.5859V3.25H18.2812V5.25ZM20.5859 5.25C20.6758 5.25 20.6782 5.26339 20.6321 5.24465C20.574 5.221 20.4812 5.16251 20.4091 5.05256C20.3417 4.94991 20.3305 4.86073 20.3289 4.83084C20.3276 4.805 20.3322 4.81366 20.3189 4.86684L22.2592 5.35191C22.34 5.02887 22.4161 4.46568 22.0812 3.95525C21.7127 3.39375 21.0935 3.25 20.5859 3.25V5.25ZM55.5469 6.90625L56.5454 6.85227L56.5453 6.85078L55.5469 6.90625ZM55.5469 14.1328L56.5453 14.1883L56.5454 14.1868L55.5469 14.1328ZM54.1406 17.8047L54.8477 18.5118L54.8544 18.5051L54.8609 18.4983L54.1406 17.8047ZM50.4688 19.2109L50.5227 20.2095L50.5242 20.2094L50.4688 19.2109ZM43.2422 19.2109L43.1867 20.2094L43.1882 20.2095L43.2422 19.2109ZM39.5703 17.8047L38.85 18.4983L38.8631 18.5119L38.8767 18.525L39.5703 17.8047ZM38.1641 14.1328L37.1655 14.1868L37.1656 14.1883L38.1641 14.1328ZM38.1641 6.90625L37.1656 6.85078L37.1655 6.85227L38.1641 6.90625ZM39.5703 3.23438L38.8767 2.51405L38.8699 2.5206L38.8632 2.52727L39.5703 3.23438ZM43.2422 1.82812L43.1882 0.829582L43.1867 0.829665L43.2422 1.82812ZM50.4688 1.82812L50.5242 0.829664L50.5227 0.829583L50.4688 1.82812ZM53.6719 15.6562L52.7479 15.2739L52.7372 15.2996L52.728 15.3259L53.6719 15.6562ZM53.6719 5.34375L54.6004 4.97236L54.597 4.964L54.5935 4.95569L53.6719 5.34375ZM52.0312 3.70312L51.6599 4.6316L51.6726 4.63671L51.6855 4.64147L52.0312 3.70312ZM41.7188 3.70312L42.0902 4.63167L42.1011 4.62714L41.7188 3.70312ZM40.0391 5.34375L39.1174 4.95569L39.1139 4.964L39.1106 4.97236L40.0391 5.34375ZM40.0391 15.6562L40.9676 15.2848L40.9631 15.2739L40.0391 15.6562ZM41.7188 17.3359L42.1011 16.4119L42.0901 16.4075L41.7188 17.3359ZM52.0312 17.3359L52.4026 18.2644L52.411 18.2611L52.4193 18.2576L52.0312 17.3359ZM46.875 7.00781C48.7837 7.00781 50.3672 8.59135 50.3672 10.5H52.3672C52.3672 7.48678 49.8882 5.00781 46.875 5.00781V7.00781ZM50.3672 10.5C50.3672 12.4421 48.7893 13.9922 46.875 13.9922V15.9922C49.8826 15.9922 52.3672 13.5579 52.3672 10.5H50.3672ZM46.875 13.9922C44.9273 13.9922 43.3828 12.4477 43.3828 10.5H41.3828C41.3828 13.5523 43.8227 15.9922 46.875 15.9922V13.9922ZM43.3828 10.5C43.3828 8.58568 44.9329 7.00781 46.875 7.00781V5.00781C43.8171 5.00781 41.3828 7.49245 41.3828 10.5H43.3828ZM46.875 14.4297C49.0376 14.4297 50.7656 12.6841 50.7656 10.5H48.7656C48.7656 11.5971 47.9155 12.4297 46.875 12.4297V14.4297ZM50.7656 10.5C50.7656 8.34615 49.0288 6.60938 46.875 6.60938V8.60938C47.9243 8.60938 48.7656 9.45072 48.7656 10.5H50.7656ZM46.875 6.60938C44.6909 6.60938 42.9453 8.3374 42.9453 10.5H44.9453C44.9453 9.45947 45.7779 8.60938 46.875 8.60938V6.60938ZM42.9453 10.5C42.9453 12.7016 44.7299 14.4297 46.875 14.4297V12.4297C45.817 12.4297 44.9453 11.5797 44.9453 10.5H42.9453ZM51.5781 5.85156C51.5781 5.86361 51.5759 5.87114 51.5738 5.87609C51.5715 5.88165 51.568 5.88692 51.5634 5.89153C51.5588 5.89614 51.5535 5.89963 51.548 5.90197C51.543 5.90404 51.5355 5.90625 51.5234 5.90625V7.90625C52.6617 7.90625 53.5781 6.98978 53.5781 5.85156H51.5781ZM51.5234 5.90625C51.5114 5.90625 51.5039 5.90404 51.4989 5.90197C51.4934 5.89963 51.4881 5.89614 51.4835 5.89153C51.4789 5.88692 51.4754 5.88165 51.473 5.87609C51.471 5.87114 51.4688 5.86361 51.4688 5.85156H49.4688C49.4688 6.98978 50.3852 7.90625 51.5234 7.90625V5.90625ZM51.4688 5.85156C51.4688 5.83952 51.471 5.83198 51.473 5.82703C51.4754 5.82148 51.4789 5.81621 51.4835 5.8116C51.4881 5.80699 51.4934 5.8035 51.4989 5.80116C51.5039 5.79908 51.5114 5.79688 51.5234 5.79688V3.79688C50.3852 3.79688 49.4688 4.71334 49.4688 5.85156H51.4688ZM51.5234 5.79688C51.5355 5.79688 51.543 5.79908 51.548 5.80116C51.5535 5.8035 51.5588 5.80699 51.5634 5.8116C51.568 5.81621 51.5715 5.82148 51.5738 5.82703C51.5759 5.83198 51.5781 5.83952 51.5781 5.85156H53.5781C53.5781 4.71334 52.6617 3.79688 51.5234 3.79688V5.79688ZM54.5483 6.96023C54.6245 8.36958 54.6245 12.6695 54.5483 14.0788L56.5454 14.1868C56.6255 12.7055 56.6255 8.33354 56.5454 6.85227L54.5483 6.96023ZM54.5484 14.0773C54.4773 15.3574 54.2052 16.2959 53.4203 17.111L54.8609 18.4983C56.1073 17.2041 56.4602 15.7207 56.5453 14.1883L54.5484 14.0773ZM53.4335 17.0976C52.6676 17.8635 51.7074 18.1406 50.4133 18.2125L50.5242 20.2094C52.0426 20.125 53.5824 19.7771 54.8477 18.5118L53.4335 17.0976ZM50.4148 18.2124C49.0054 18.2886 44.7055 18.2886 43.2962 18.2124L43.1882 20.2095C44.6695 20.2895 49.0415 20.2895 50.5227 20.2095L50.4148 18.2124ZM43.2977 18.2125C42.0176 18.1414 41.0791 17.8693 40.264 17.0844L38.8767 18.525C40.1709 19.7713 41.6543 20.1243 43.1867 20.2094L43.2977 18.2125ZM40.2906 17.111C39.5057 16.2959 39.2336 15.3574 39.1625 14.0773L37.1656 14.1883C37.2507 15.7207 37.6037 17.2041 38.85 18.4983L40.2906 17.111ZM39.1626 14.0788C39.0864 12.6695 39.0864 8.36958 39.1626 6.96023L37.1655 6.85227C37.0855 8.33354 37.0855 12.7055 37.1655 14.1868L39.1626 14.0788ZM39.1625 6.96172C39.2344 5.66757 39.5115 4.70739 40.2774 3.94148L38.8632 2.52727C37.5979 3.79261 37.25 5.33243 37.1656 6.85078L39.1625 6.96172ZM40.264 3.9547C41.0791 3.16975 42.0176 2.8977 43.2977 2.82659L43.1867 0.829665C41.6543 0.914798 40.1709 1.26775 38.8767 2.51405L40.264 3.9547ZM43.2962 2.82667C44.7055 2.75049 49.0054 2.75049 50.4148 2.82667L50.5227 0.829583C49.0415 0.749514 44.6695 0.749514 43.1882 0.829583L43.2962 2.82667ZM50.4133 2.82659C51.7074 2.89848 52.6676 3.17557 53.4335 3.94148L54.8477 2.52727C53.5824 1.26193 52.0426 0.914018 50.5242 0.829665L50.4133 2.82659ZM53.4335 3.94148C54.1994 4.70739 54.4765 5.66757 54.5484 6.96172L56.5453 6.85078C56.461 5.33243 56.1131 3.79261 54.8477 2.52727L53.4335 3.94148ZM54.5959 16.0386C54.9106 15.2781 54.9943 14.1309 55.023 13.1664C55.0528 12.1632 55.0234 11.1004 55.0234 10.5H53.0234C53.0234 11.1887 53.0527 12.1376 53.0239 13.107C52.9939 14.1152 52.9019 14.9016 52.7479 15.2739L54.5959 16.0386ZM55.0234 10.5C55.0234 9.91944 55.0528 8.86604 55.023 7.86289C54.9942 6.8941 54.9097 5.74568 54.6004 4.97236L52.7434 5.71514C52.9028 6.1137 52.9941 6.9184 53.0239 7.92227C53.0527 8.89177 53.0234 9.83056 53.0234 10.5H55.0234ZM54.5935 4.95569C54.1919 4.0019 53.4204 3.14921 52.377 2.76478L51.6855 4.64147C52.1265 4.80392 52.5268 5.20122 52.7502 5.73181L54.5935 4.95569ZM52.4026 2.77465C51.6293 2.46532 50.4809 2.38078 49.5121 2.352C48.509 2.32221 47.4556 2.35156 46.875 2.35156V4.35156C47.5444 4.35156 48.4832 4.32232 49.4527 4.35112C50.4566 4.38094 51.2613 4.47218 51.6599 4.6316L52.4026 2.77465ZM46.875 2.35156C46.2746 2.35156 45.2118 2.3222 44.2086 2.352C43.2441 2.38065 42.0969 2.46442 41.3364 2.77911L42.1011 4.62714C42.4734 4.47308 43.2598 4.38107 44.268 4.35112C45.2374 4.32233 46.1863 4.35156 46.875 4.35156V2.35156ZM41.3474 2.77465C40.3174 3.18664 39.5335 3.96745 39.1174 4.95569L40.9607 5.73181C41.1696 5.23567 41.5576 4.84461 42.0901 4.6316L41.3474 2.77465ZM39.1106 4.97236C38.8013 5.74568 38.7167 6.8941 38.6879 7.86289C38.6581 8.86604 38.6875 9.91944 38.6875 10.5H40.6875C40.6875 9.83056 40.6583 8.89177 40.6871 7.92227C40.7169 6.9184 40.8081 6.1137 40.9675 5.71514L39.1106 4.97236ZM38.6875 10.5C38.6875 11.1004 38.6581 12.1632 38.6879 13.1664C38.7166 14.1309 38.8004 15.2781 39.115 16.0386L40.9631 15.2739C40.809 14.9016 40.717 14.1152 40.6871 13.107C40.6583 12.1376 40.6875 11.1887 40.6875 10.5H38.6875ZM39.1106 16.0276C39.5247 17.063 40.312 17.8503 41.3474 18.2644L42.0901 16.4075C41.563 16.1966 41.1784 15.812 40.9675 15.2849L39.1106 16.0276ZM41.3364 18.26C42.0969 18.5746 43.2441 18.6584 44.2086 18.6871C45.2118 18.7169 46.2746 18.6875 46.875 18.6875V16.6875C46.1863 16.6875 45.2374 16.7167 44.268 16.6879C43.2598 16.658 42.4734 16.566 42.1011 16.4119L41.3364 18.26ZM46.875 18.6875C47.4556 18.6875 48.509 18.7169 49.5121 18.6871C50.4809 18.6583 51.6293 18.5737 52.4026 18.2644L51.6599 16.4075C51.2613 16.5669 50.4566 16.6581 49.4527 16.6879C48.4832 16.7167 47.5444 16.6875 46.875 16.6875V18.6875ZM52.4193 18.2576C53.379 17.8535 54.2345 17.0757 54.6157 15.9866L52.728 15.3259C52.5623 15.7993 52.1679 16.1934 51.6432 16.4143L52.4193 18.2576ZM82.1484 11.75V12.75H83.0078L83.1371 11.9004L82.1484 11.75ZM79.2188 11.75V10.75H78.2188V11.75H79.2188ZM79.2188 20.5V21.5H80.2188V20.5H79.2188ZM75.3125 20.5H74.3125V21.5H75.3125V20.5ZM75.3125 11.75H76.3125V10.75H75.3125V11.75ZM72.1094 11.75H71.1094V12.75H72.1094V11.75ZM72.1094 8.15625V7.15625H71.1094V8.15625H72.1094ZM75.3125 8.15625V9.15625H76.3125V8.15625H75.3125ZM82.8516 0.773438H83.8516V-0.0551122L83.0375 -0.209133L82.8516 0.773438ZM82.8516 3.85938V4.85938H83.8516V3.85938H82.8516ZM79.2188 8.15625H78.2188V9.15625H79.2188V8.15625ZM82.6953 8.15625L83.6839 8.30669L83.859 7.15625H82.6953V8.15625ZM82.1484 10.75H79.2188V12.75H82.1484V10.75ZM78.2188 11.75V20.5H80.2188V11.75H78.2188ZM79.2188 19.5H75.3125V21.5H79.2188V19.5ZM76.3125 20.5V11.75H74.3125V20.5H76.3125ZM75.3125 10.75H72.1094V12.75H75.3125V10.75ZM73.1094 11.75V8.15625H71.1094V11.75H73.1094ZM72.1094 9.15625H75.3125V7.15625H72.1094V9.15625ZM76.3125 8.15625V5.38281H74.3125V8.15625H76.3125ZM76.3125 5.38281C76.3125 4.02156 76.7168 3.07691 77.3156 2.47455C77.9149 1.87178 78.8198 1.5 80.0391 1.5V-0.5C78.4067 -0.5 76.9484 0.00712907 75.8973 1.06451C74.8457 2.12231 74.3125 3.61906 74.3125 5.38281H76.3125ZM80.0391 1.5C80.6632 1.5 81.3198 1.56296 81.8306 1.62857C82.0836 1.66106 82.2955 1.6935 82.4431 1.71762C82.5168 1.72966 82.5742 1.73959 82.6123 1.74635C82.6313 1.74972 82.6456 1.75231 82.6546 1.75396C82.6591 1.75479 82.6623 1.75538 82.6642 1.75573C82.6651 1.7559 82.6657 1.75601 82.666 1.75606C82.6661 1.75609 82.6661 1.75609 82.6661 1.75608C82.666 1.75608 82.666 1.75607 82.6659 1.75606C82.6659 1.75605 82.6658 1.75604 82.6658 1.75604C82.6657 1.75602 82.6657 1.75601 82.8516 0.773438C83.0375 -0.209133 83.0374 -0.209149 83.0373 -0.209167C83.0372 -0.209175 83.0371 -0.209193 83.0371 -0.209208C83.0369 -0.209237 83.0367 -0.209271 83.0365 -0.209308C83.0361 -0.209383 83.0356 -0.209475 83.0351 -0.209583C83.0339 -0.209799 83.0324 -0.21008 83.0306 -0.210424C83.0269 -0.211112 83.0218 -0.212052 83.0154 -0.213227C83.0026 -0.215577 82.9844 -0.21887 82.9613 -0.22297C82.915 -0.231166 82.8488 -0.242604 82.7657 -0.256195C82.5995 -0.283346 82.3647 -0.319264 82.0854 -0.355133C81.5318 -0.426238 80.7821 -0.5 80.0391 -0.5V1.5ZM81.8516 0.773438V3.85938H83.8516V0.773438H81.8516ZM82.8516 2.85938H81.25V4.85938H82.8516V2.85938ZM81.25 2.85938C80.2621 2.85938 79.4432 3.16369 78.8921 3.80093C78.3646 4.41082 78.2188 5.17075 78.2188 5.8125H80.2188C80.2188 5.43862 80.3073 5.22199 80.4048 5.10923C80.4787 5.02381 80.6754 4.85938 81.25 4.85938V2.85938ZM78.2188 5.8125V8.15625H80.2188V5.8125H78.2188ZM79.2188 9.15625H82.6953V7.15625H79.2188V9.15625ZM81.7067 8.00581L81.1598 11.5996L83.1371 11.9004L83.6839 8.30669L81.7067 8.00581ZM117.305 6.4375L116.705 5.6375L116.305 5.9375V6.4375H117.305ZM99.375 16.7891L99.499 15.7968L98.8287 17.6267L99.375 16.7891ZM105.43 15.1094L106.044 15.8987L108.265 14.1708L105.451 14.1096L105.43 15.1094ZM101.602 12.2578L101.743 11.2679L100.179 11.0445L100.646 12.5535L101.602 12.2578ZM103.438 12.1797L103.68 13.1498L103.641 11.2007L103.438 12.1797ZM100.156 8.11719L100.652 7.24894L99.1562 6.39401V8.11719H100.156ZM102.031 8.625L101.973 9.62327L105.716 9.84346L102.579 7.78854L102.031 8.625ZM100.742 3.15625L101.513 2.51969L100.613 1.42843L99.8847 2.64175L100.742 3.15625ZM109.219 7.45312L109.161 8.45148L110.519 8.52948L110.189 7.21059L109.219 7.45312ZM116.211 3.70312L115.487 4.39278L115.874 4.79966L116.423 4.6803L116.211 3.70312ZM118.789 2.6875L119.741 2.99228L120.55 0.464527L118.275 1.83001L118.789 2.6875ZM116.992 4.95312L116.483 4.0922L117.087 5.94862L116.992 4.95312ZM119.336 4.32812L120.168 4.88283L122.081 2.01398L118.93 3.41431L119.336 4.32812ZM116.305 6.4375C116.305 6.43788 116.305 6.43826 116.305 6.43864C116.305 6.43902 116.305 6.43941 116.305 6.43979C116.305 6.44017 116.305 6.44055 116.305 6.44093C116.305 6.44131 116.305 6.44169 116.305 6.44207C116.305 6.44245 116.305 6.44283 116.305 6.44321C116.305 6.44359 116.305 6.44397 116.305 6.44435C116.305 6.44473 116.305 6.44511 116.305 6.44549C116.305 6.44587 116.305 6.44625 116.305 6.44663C116.305 6.44701 116.305 6.44738 116.305 6.44776C116.305 6.44814 116.305 6.44852 116.305 6.4489C116.305 6.44928 116.305 6.44966 116.305 6.45004C116.305 6.45041 116.305 6.45079 116.305 6.45117C116.305 6.45155 116.305 6.45193 116.305 6.4523C116.305 6.45268 116.305 6.45306 116.305 6.45344C116.305 6.45381 116.305 6.45419 116.305 6.45457C116.305 6.45494 116.305 6.45532 116.305 6.4557C116.305 6.45608 116.305 6.45645 116.305 6.45683C116.305 6.45721 116.305 6.45758 116.305 6.45796C116.305 6.45833 116.305 6.45871 116.305 6.45909C116.305 6.45946 116.305 6.45984 116.305 6.46021C116.305 6.46059 116.305 6.46097 116.305 6.46134C116.305 6.46172 116.305 6.46209 116.305 6.46247C116.305 6.46284 116.305 6.46322 116.305 6.46359C116.305 6.46397 116.305 6.46434 116.305 6.46472C116.305 6.46509 116.305 6.46547 116.305 6.46584C116.305 6.46621 116.305 6.46659 116.305 6.46696C116.305 6.46734 116.305 6.46771 116.305 6.46808C116.305 6.46846 116.305 6.46883 116.305 6.46921C116.305 6.46958 116.305 6.46995 116.305 6.47033C116.305 6.4707 116.305 6.47107 116.305 6.47145C116.305 6.47182 116.305 6.47219 116.305 6.47256C116.305 6.47294 116.305 6.47331 116.305 6.47368C116.305 6.47405 116.305 6.47443 116.305 6.4748C116.305 6.47517 116.305 6.47554 116.305 6.47592C116.305 6.47629 116.305 6.47666 116.305 6.47703C116.305 6.4774 116.305 6.47778 116.305 6.47815C116.305 6.47852 116.305 6.47889 116.305 6.47926C116.305 6.47963 116.305 6.48 116.305 6.48037C116.305 6.48074 116.305 6.48112 116.305 6.48149C116.305 6.48186 116.305 6.48223 116.305 6.4826C116.305 6.48297 116.305 6.48334 116.305 6.48371C116.305 6.48408 116.305 6.48445 116.305 6.48482C116.305 6.48519 116.305 6.48556 116.305 6.48593C116.305 6.4863 116.305 6.48667 116.305 6.48704C116.305 6.48741 116.305 6.48778 116.305 6.48815C116.305 6.48852 116.305 6.48888 116.305 6.48925C116.305 6.48962 116.305 6.48999 116.305 6.49036C116.305 6.49073 116.305 6.4911 116.305 6.49147C116.305 6.49183 116.305 6.4922 116.305 6.49257C116.305 6.49294 116.305 6.49331 116.305 6.49368C116.305 6.49404 116.305 6.49441 116.305 6.49478C116.305 6.49515 116.305 6.49551 116.305 6.49588C116.305 6.49625 116.305 6.49662 116.305 6.49698C116.305 6.49735 116.305 6.49772 116.305 6.49809C116.305 6.49845 116.305 6.49882 116.305 6.49919C116.305 6.49955 116.305 6.49992 116.305 6.50029C116.305 6.50065 116.305 6.50102 116.305 6.50139C116.305 6.50175 116.305 6.50212 116.305 6.50249C116.305 6.50285 116.305 6.50322 116.305 6.50358C116.305 6.50395 116.305 6.50432 116.305 6.50468C116.305 6.50505 116.305 6.50541 116.305 6.50578C116.305 6.50614 116.305 6.50651 116.305 6.50687C116.305 6.50724 116.305 6.5076 116.305 6.50797C116.305 6.50833 116.305 6.5087 116.305 6.50906C116.305 6.50943 116.305 6.50979 116.305 6.51016C116.305 6.51052 116.305 6.51089 116.305 6.51125C116.305 6.51162 116.305 6.51198 116.305 6.51234C116.305 6.51271 116.305 6.51307 116.305 6.51344C116.305 6.5138 116.305 6.51416 116.305 6.51453C116.305 6.51489 116.305 6.51525 116.305 6.51562C116.305 6.51598 116.305 6.51634 116.305 6.51671C116.305 6.51707 116.305 6.51743 116.305 6.5178C116.305 6.51816 116.305 6.51852 116.305 6.51889C116.305 6.51925 116.305 6.51961 116.305 6.51997C116.305 6.52034 116.305 6.5207 116.305 6.52106C116.305 6.52142 116.305 6.52179 116.305 6.52215C116.305 6.52251 116.305 6.52287 116.305 6.52323C116.305 6.5236 116.305 6.52396 116.305 6.52432C116.305 6.52468 116.305 6.52504 116.305 6.52541C116.305 6.52577 116.305 6.52613 116.305 6.52649C116.305 6.52685 116.305 6.52721 116.305 6.52757C116.305 6.52793 116.305 6.5283 116.305 6.52866C116.305 6.52902 116.305 6.52938 116.305 6.52974C116.305 6.5301 116.305 6.53046 116.305 6.53082C116.305 6.53118 116.305 6.53154 116.305 6.5319C116.305 6.53226 116.305 6.53262 116.305 6.53298C116.305 6.53334 116.305 6.5337 116.305 6.53406C116.305 6.53442 116.305 6.53478 116.305 6.53514C116.305 6.5355 116.305 6.53586 116.305 6.53622C116.305 6.53658 116.305 6.53694 116.305 6.5373C116.305 6.53766 116.305 6.53802 116.305 6.53838C116.305 6.53874 116.305 6.5391 116.305 6.53946C116.305 6.53981 116.305 6.54017 116.305 6.54053C116.305 6.54089 116.305 6.54125 116.305 6.54161C116.305 6.54197 116.305 6.54233 116.305 6.54268C116.305 6.54304 116.305 6.5434 116.305 6.54376C116.305 6.54412 116.305 6.54447 116.305 6.54483C116.305 6.54519 116.305 6.54555 116.305 6.54591C116.305 6.54626 116.305 6.54662 116.305 6.54698C116.305 6.54734 116.305 6.5477 116.305 6.54805C116.305 6.54841 116.305 6.54877 116.305 6.54912C116.305 6.54948 116.305 6.54984 116.305 6.5502C116.305 6.55055 116.305 6.55091 116.305 6.55127C116.305 6.55162 116.305 6.55198 116.305 6.55234C116.305 6.55269 116.305 6.55305 116.305 6.55341C116.305 6.55376 116.305 6.55412 116.305 6.55448C116.305 6.55483 116.305 6.55519 116.305 6.55555C116.305 6.5559 116.305 6.55626 116.305 6.55662C116.305 6.55697 116.305 6.55733 116.305 6.55768C116.305 6.55804 116.305 6.55839 116.305 6.55875C116.305 6.55911 116.305 6.55946 116.305 6.55982C116.305 6.56017 116.305 6.56053 116.305 6.56088C116.305 6.56124 116.305 6.56159 116.305 6.56195C116.305 6.5623 116.305 6.56266 116.305 6.56302C116.305 6.56337 116.305 6.56373 116.305 6.56408C116.305 6.56444 116.305 6.56479 116.305 6.56514C116.305 6.5655 116.305 6.56585 116.305 6.56621C116.305 6.56656 116.305 6.56692 116.305 6.56727C116.305 6.56763 116.305 6.56798 116.305 6.56834C116.305 6.56869 116.305 6.56904 116.305 6.5694C116.305 6.56975 116.305 6.57011 116.305 6.57046C116.305 6.57081 116.305 6.57117 116.305 6.57152C116.305 6.57188 116.305 6.57223 116.305 6.57258C116.305 6.57294 116.305 6.57329 116.305 6.57364C116.305 6.574 116.305 6.57435 116.305 6.5747C116.305 6.57506 116.305 6.57541 116.305 6.57576C116.305 6.57612 116.305 6.57647 116.305 6.57682C116.305 6.57718 116.305 6.57753 116.305 6.57788C116.305 6.57823 116.305 6.57859 116.305 6.57894C116.305 6.57929 116.305 6.57964 116.305 6.58C116.305 6.58035 116.305 6.5807 116.305 6.58105C116.305 6.58141 116.305 6.58176 116.305 6.58211C116.305 6.58246 116.305 6.58282 116.305 6.58317C116.305 6.58352 116.305 6.58387 116.305 6.58422C116.305 6.58458 116.305 6.58493 116.305 6.58528C116.305 6.58563 116.305 6.58598 116.305 6.58634C116.305 6.58669 116.305 6.58704 116.305 6.58739C116.305 6.58774 116.305 6.58809 116.305 6.58844C116.305 6.5888 116.305 6.58915 116.305 6.5895C116.305 6.58985 116.305 6.5902 116.305 6.59055C116.305 6.5909 116.305 6.59125 116.305 6.59161C116.305 6.59196 116.305 6.59231 116.305 6.59266C116.305 6.59301 116.305 6.59336 116.305 6.59371C116.305 6.59406 116.305 6.59441 116.305 6.59476C116.305 6.59511 116.305 6.59546 116.305 6.59582C116.305 6.59617 116.305 6.59652 116.305 6.59687C116.305 6.59722 116.305 6.59757 116.305 6.59792C116.305 6.59827 116.305 6.59862 116.305 6.59897C116.305 6.59932 116.305 6.59967 116.305 6.60002C116.305 6.60037 116.305 6.60072 116.305 6.60107C116.305 6.60142 116.305 6.60177 116.305 6.60212C116.305 6.60247 116.305 6.60282 116.305 6.60317C116.305 6.60352 116.305 6.60387 116.305 6.60421C116.305 6.60456 116.305 6.60491 116.305 6.60526C116.305 6.60561 116.305 6.60596 116.305 6.60631C116.305 6.60666 116.305 6.60701 116.305 6.60736C116.305 6.60771 116.305 6.60806 116.305 6.60841C116.305 6.60876 116.305 6.6091 116.305 6.60945C116.305 6.6098 116.305 6.61015 116.305 6.6105C116.305 6.61085 116.305 6.6112 116.305 6.61155C116.305 6.61189 116.305 6.61224 116.305 6.61259C116.305 6.61294 116.305 6.61329 116.305 6.61364C116.305 6.61399 116.305 6.61433 116.305 6.61468C116.305 6.61503 116.305 6.61538 116.305 6.61573C116.305 6.61608 116.305 6.61642 116.305 6.61677C116.305 6.61712 116.305 6.61747 116.305 6.61782C116.305 6.61816 116.305 6.61851 116.305 6.61886C116.305 6.61921 116.305 6.61956 116.305 6.6199C116.305 6.62025 116.305 6.6206 116.305 6.62095C116.305 6.62129 116.305 6.62164 116.305 6.62199C116.305 6.62234 116.305 6.62269 116.305 6.62303C116.305 6.62338 116.305 6.62373 116.305 6.62407C116.305 6.62442 116.305 6.62477 116.305 6.62512C116.305 6.62546 116.305 6.62581 116.305 6.62616C116.305 6.62651 116.305 6.62685 116.305 6.6272C116.305 6.62755 116.305 6.62789 116.305 6.62824C116.305 6.62859 116.305 6.62894 116.305 6.62928C116.305 6.62963 116.305 6.62998 116.305 6.63032C116.305 6.63067 116.305 6.63102 116.305 6.63136C116.305 6.63171 116.305 6.63206 116.305 6.6324C116.305 6.63275 116.305 6.6331 116.305 6.63344C116.305 6.63379 116.305 6.63414 116.305 6.63448C116.305 6.63483 116.305 6.63518 116.305 6.63552C116.305 6.63587 116.305 6.63622 116.305 6.63656C116.305 6.63691 116.305 6.63726 116.305 6.6376C116.305 6.63795 116.305 6.63829 116.305 6.63864C116.305 6.63899 116.305 6.63933 116.305 6.63968C116.305 6.64002 116.305 6.64037 116.305 6.64072C116.305 6.64106 116.305 6.64141 116.305 6.64175C116.305 6.6421 116.305 6.64245 116.305 6.64279C116.305 6.64314 116.305 6.64348 116.305 6.64383C116.305 6.64418 116.305 6.64452 116.305 6.64487C116.305 6.64521 116.305 6.64556 116.305 6.6459C116.305 6.64625 116.305 6.6466 116.305 6.64694C116.305 6.64729 116.305 6.64763 116.305 6.64798C116.305 6.64832 116.305 6.64867 116.305 6.64901C116.305 6.64936 116.305 6.6497 116.305 6.65005C116.305 6.6504 116.305 6.65074 116.305 6.65109C116.305 6.65143 116.305 6.65178 116.305 6.65212C116.305 6.65247 116.305 6.65281 116.305 6.65316C116.305 6.6535 116.305 6.65385 116.305 6.65419C116.305 6.65454 116.305 6.65488 116.305 6.65523C116.305 6.65557 116.305 6.65592 116.305 6.65626C116.305 6.65661 116.305 6.65695 116.305 6.6573C116.305 6.65764 116.305 6.65799 116.305 6.65833C116.305 6.65868 116.305 6.65902 116.305 6.65937C116.305 6.65971 116.305 6.66006 116.305 6.6604C116.305 6.66075 116.305 6.66109 116.305 6.66143C116.305 6.66178 116.305 6.66212 116.305 6.66247C116.305 6.66281 116.305 6.66316 116.305 6.6635C116.305 6.66385 116.305 6.66419 116.305 6.66454C116.305 6.66488 116.305 6.66523 116.305 6.66557C116.305 6.66591 116.305 6.66626 116.305 6.6666C116.305 6.66695 116.305 6.66729 116.305 6.66764C116.305 6.66798 116.305 6.66832 116.305 6.66867C116.305 6.66901 116.305 6.66936 116.305 6.6697C116.305 6.67005 116.305 6.67039 116.305 6.67073C116.305 6.67108 116.305 6.67142 116.305 6.67177C116.305 6.67211 116.305 6.67245 116.305 6.6728C116.305 6.67314 116.305 6.67349 116.305 6.67383C116.305 6.67418 116.305 6.67452 116.305 6.67486C116.305 6.67521 116.305 6.67555 116.305 6.6759C116.305 6.67624 116.305 6.67658 116.305 6.67693C116.305 6.67727 116.305 6.67762 116.305 6.67796C116.305 6.6783 116.305 6.67865 116.305 6.67899C116.305 6.67934 116.305 6.67968 116.305 6.68002C116.305 6.68037 116.305 6.68071 116.305 6.68105C116.305 6.6814 116.305 6.68174 116.305 6.68209C116.305 6.68243 116.305 6.68277 116.305 6.68312C116.305 6.68346 116.305 6.6838 116.305 6.68415C116.305 6.68449 116.305 6.68484 116.305 6.68518C116.305 6.68552 116.305 6.68587 116.305 6.68621C116.305 6.68655 116.305 6.6869 116.305 6.68724C116.305 6.68758 116.305 6.68793 116.305 6.68827C116.305 6.68862 116.305 6.68896 116.305 6.6893C116.305 6.68965 116.305 6.68999 116.305 6.69033C116.305 6.69068 116.305 6.69102 116.305 6.69136C116.305 6.69171 116.305 6.69205 116.305 6.69239C116.305 6.69274 116.305 6.69308 116.305 6.69343C116.305 6.69377 116.305 6.69411 116.305 6.69446C116.305 6.6948 116.305 6.69514 116.305 6.69549C116.305 6.69583 116.305 6.69617 116.305 6.69652C116.305 6.69686 116.305 6.6972 116.305 6.69755C116.305 6.69789 116.305 6.69823 116.305 6.69858C116.305 6.69892 116.305 6.69926 116.305 6.69961C116.305 6.69995 116.305 6.70029 116.305 6.70064C116.305 6.70098 116.305 6.70132 116.305 6.70167C116.305 6.70201 116.305 6.70235 116.305 6.7027C116.305 6.70304 116.305 6.70338 116.305 6.70373C116.305 6.70407 116.305 6.70441 116.305 6.70476C116.305 6.7051 116.305 6.70544 116.305 6.70579C116.305 6.70613 116.305 6.70647 116.305 6.70682C116.305 6.70716 116.305 6.7075 116.305 6.70785C116.305 6.70819 116.305 6.70853 116.305 6.70888C116.305 6.70922 116.305 6.70956 116.305 6.70991C116.305 6.71025 116.305 6.71059 116.305 6.71094C116.305 6.71128 116.305 6.71162 116.305 6.71197C116.305 6.71231 116.305 6.71265 116.305 6.713C116.305 6.71334 116.305 6.71368 116.305 6.71403C116.305 6.71437 116.305 6.71471 116.305 6.71506C116.305 6.7154 116.305 6.71574 116.305 6.71609C116.305 6.71643 116.305 6.71677 116.305 6.71712C116.305 6.71746 116.305 6.7178 116.305 6.71815C116.305 6.71849 116.305 6.71883 116.305 6.71918C116.305 6.71952 116.305 6.71986 116.305 6.72021C116.305 6.72055 116.305 6.72089 116.305 6.72124C116.305 6.72158 116.305 6.72192 116.305 6.72227C116.305 6.72261 116.305 6.72295 116.305 6.7233C116.305 6.72364 116.305 6.72398 116.305 6.72433C116.305 6.72467 116.305 6.72502 116.305 6.72536C116.305 6.7257 116.305 6.72605 116.305 6.72639C116.305 6.72673 116.305 6.72708 116.305 6.72742C116.305 6.72776 116.305 6.72811 116.305 6.72845C116.305 6.72879 116.305 6.72914 116.305 6.72948C116.305 6.72982 116.305 6.73017 116.305 6.73051C116.305 6.73085 116.305 6.7312 116.305 6.73154C116.305 6.73188 116.305 6.73223 116.305 6.73257C116.305 6.73292 116.305 6.73326 116.305 6.7336C116.305 6.73395 116.305 6.73429 116.305 6.73463C116.305 6.73498 116.305 6.73532 116.305 6.73566C116.305 6.73601 116.305 6.73635 116.305 6.7367C116.305 6.73704 116.305 6.73738 116.305 6.73773C116.305 6.73807 116.305 6.73841 116.305 6.73876C116.305 6.7391 116.305 6.73945 116.305 6.73979C116.305 6.74013 116.305 6.74048 116.305 6.74082C116.305 6.74116 116.305 6.74151 116.305 6.74185C116.305 6.7422 116.305 6.74254 116.305 6.74288C116.305 6.74323 116.305 6.74357 116.305 6.74392C116.305 6.74426 116.305 6.7446 116.305 6.74495C116.305 6.74529 116.305 6.74564 116.305 6.74598C116.305 6.74632 116.305 6.74667 116.305 6.74701C116.305 6.74736 116.305 6.7477 116.305 6.74804C116.305 6.74839 116.305 6.74873 116.305 6.74908C116.305 6.74942 116.305 6.74976 116.305 6.75011C116.305 6.75045 116.305 6.7508 116.305 6.75114C116.305 6.75148 116.305 6.75183 116.305 6.75217C116.305 6.75252 116.305 6.75286 116.305 6.75321C116.305 6.75355 116.305 6.75389 116.305 6.75424C116.305 6.75458 116.305 6.75493 116.305 6.75527C116.305 6.75562 116.305 6.75596 116.305 6.75631C116.305 6.75665 116.305 6.75699 116.305 6.75734C116.305 6.75768 116.305 6.75803 116.305 6.75837C116.305 6.75872 116.305 6.75906 116.305 6.75941C116.305 6.75975 116.305 6.7601 116.305 6.76044C116.305 6.76079 116.305 6.76113 116.305 6.76147C116.305 6.76182 116.305 6.76216 116.305 6.76251C116.305 6.76285 116.305 6.7632 116.305 6.76354C116.305 6.76389 116.305 6.76423 116.305 6.76458C116.305 6.76492 116.305 6.76527 116.305 6.76561C116.305 6.76596 116.305 6.7663 116.305 6.76665C116.305 6.76699 116.305 6.76734 116.305 6.76768C116.305 6.76803 116.305 6.76837 116.305 6.76872C116.305 6.76906 116.305 6.76941 116.305 6.76975C116.305 6.7701 116.305 6.77044 116.305 6.77079C116.305 6.77113 116.305 6.77148 116.305 6.77183C116.305 6.77217 116.305 6.77252 116.305 6.77286C116.305 6.77321 116.305 6.77355 116.305 6.7739C116.305 6.77424 116.305 6.77459 116.305 6.77493C116.305 6.77528 116.305 6.77563 116.305 6.77597C116.305 6.77632 116.305 6.77666 116.305 6.77701C116.305 6.77735 116.305 6.7777 116.305 6.77805C116.305 6.77839 116.305 6.77874 116.305 6.77908C116.305 6.77943 116.305 6.77977 116.305 6.78012C116.305 6.78047 116.305 6.78081 116.305 6.78116C116.305 6.7815 116.305 6.78185 116.305 6.7822C116.305 6.78254 116.305 6.78289 116.305 6.78324C116.305 6.78358 116.305 6.78393 116.305 6.78427C116.305 6.78462 116.305 6.78497 116.305 6.78531C116.305 6.78566 116.305 6.78601 116.305 6.78635C116.305 6.7867 116.305 6.78704 116.305 6.78739C116.305 6.78774 116.305 6.78808 116.305 6.78843C116.305 6.78878 116.305 6.78912 116.305 6.78947C116.305 6.78982 116.305 6.79016 116.305 6.79051C116.305 6.79086 116.305 6.7912 116.305 6.79155C116.305 6.7919 116.305 6.79224 116.305 6.79259C116.305 6.79294 116.305 6.79329 116.305 6.79363C116.305 6.79398 116.305 6.79433 116.305 6.79467C116.305 6.79502 116.305 6.79537 116.305 6.79572C116.305 6.79606 116.305 6.79641 116.305 6.79676C116.305 6.7971 116.305 6.79745 116.305 6.7978C116.305 6.79815 116.305 6.79849 116.305 6.79884C116.305 6.79919 116.305 6.79954 116.305 6.79988C116.305 6.80023 116.305 6.80058 116.305 6.80093C116.305 6.80128 116.305 6.80162 116.305 6.80197C116.305 6.80232 116.305 6.80267 116.305 6.80302C116.305 6.80336 116.305 6.80371 116.305 6.80406C116.305 6.80441 116.305 6.80476 116.305 6.8051C116.305 6.80545 116.305 6.8058 116.305 6.80615C116.305 6.8065 116.305 6.80684 116.305 6.80719C116.305 6.80754 116.305 6.80789 116.305 6.80824C116.305 6.80859 116.305 6.80894 116.305 6.80928C116.305 6.80963 116.305 6.80998 116.305 6.81033C116.305 6.81068 116.305 6.81103 116.305 6.81138C116.305 6.81172 116.305 6.81207 116.305 6.81242C116.305 6.81277 116.305 6.81312 116.305 6.81347C116.305 6.81382 116.305 6.81417 116.305 6.81452C116.305 6.81487 116.305 6.81521 116.305 6.81556C116.305 6.81591 116.305 6.81626 116.305 6.81661C116.305 6.81696 116.305 6.81731 116.305 6.81766C116.305 6.81801 116.305 6.81836 116.305 6.81871C116.305 6.81906 116.305 6.81941 116.305 6.81976C116.305 6.82011 116.305 6.82046 116.305 6.82081C116.305 6.82116 116.305 6.82151 116.305 6.82186C116.305 6.82221 116.305 6.82256 116.305 6.82291C116.305 6.82326 116.305 6.82361 116.305 6.82396C116.305 6.82431 116.305 6.82466 116.305 6.82501C116.305 6.82536 116.305 6.82571 116.305 6.82606C116.305 6.82641 116.305 6.82676 116.305 6.82711C116.305 6.82746 116.305 6.82781 116.305 6.82816C116.305 6.82851 116.305 6.82887 116.305 6.82922C116.305 6.82957 116.305 6.82992 116.305 6.83027C116.305 6.83062 116.305 6.83097 116.305 6.83132C116.305 6.83167 116.305 6.83202 116.305 6.83238C116.305 6.83273 116.305 6.83308 116.305 6.83343C116.305 6.83378 116.305 6.83413 116.305 6.83448C116.305 6.83484 116.305 6.83519 116.305 6.83554C116.305 6.83589 116.305 6.83624 116.305 6.8366C116.305 6.83695 116.305 6.8373 116.305 6.83765C116.305 6.838 116.305 6.83835 116.305 6.83871C116.305 6.83906 116.305 6.83941 116.305 6.83976C116.305 6.84012 116.305 6.84047 116.305 6.84082C116.305 6.84117 116.305 6.84153 116.305 6.84188C116.305 6.84223 116.305 6.84258 116.305 6.84294C116.305 6.84329 116.305 6.84364 116.305 6.84399C116.305 6.84435 116.305 6.8447 116.305 6.84505C116.305 6.84541 116.305 6.84576 116.305 6.84611C116.305 6.84647 116.305 6.84682 116.305 6.84717C116.305 6.84753 116.305 6.84788 116.305 6.84823C116.305 6.84859 116.305 6.84894 116.305 6.84929C116.305 6.84965 116.305 6.85 116.305 6.85035C116.305 6.85071 116.305 6.85106 116.305 6.85142C116.305 6.85177 116.305 6.85212 116.305 6.85248C116.305 6.85283 116.305 6.85319 116.305 6.85354C116.305 6.85389 116.305 6.85425 116.305 6.8546C116.305 6.85496 116.305 6.85531 116.305 6.85567C116.305 6.85602 116.305 6.85638 116.305 6.85673C116.305 6.85709 116.305 6.85744 116.305 6.85779C116.305 6.85815 116.305 6.8585 116.305 6.85886C116.305 6.85921 116.305 6.85957 116.305 6.85993C116.305 6.86028 116.305 6.86064 116.305 6.86099C116.305 6.86135 116.305 6.8617 116.305 6.86206C116.305 6.86241 116.305 6.86277 116.305 6.86312C116.305 6.86348 116.305 6.86384 116.305 6.86419C116.305 6.86455 116.305 6.8649 116.305 6.86526C116.305 6.86562 116.305 6.86597 116.305 6.86633C116.305 6.86668 116.305 6.86704 116.305 6.8674C116.305 6.86775 116.305 6.86811 116.305 6.86847C116.305 6.86882 116.305 6.86918 116.305 6.86954C116.305 6.86989 116.305 6.87025 116.305 6.87061C116.305 6.87096 116.305 6.87132 116.305 6.87168C116.305 6.87204 116.305 6.87239 116.305 6.87275C116.305 6.87311 116.305 6.87347 116.305 6.87382C116.305 6.87418 116.305 6.87454 116.305 6.8749C116.305 6.87525 116.305 6.87561 116.305 6.87597C116.305 6.87633 116.305 6.87668 116.305 6.87704C116.305 6.8774 116.305 6.87776 116.305 6.87812C116.305 6.87847 116.305 6.87883 116.305 6.87919C116.305 6.87955 116.305 6.87991 116.305 6.88027C116.305 6.88063 116.305 6.88098 116.305 6.88134C116.305 6.8817 116.305 6.88206 116.305 6.88242C116.305 6.88278 116.305 6.88314 116.305 6.8835C116.305 6.88386 116.305 6.88422 116.305 6.88457C116.305 6.88493 116.305 6.88529 116.305 6.88565C116.305 6.88601 116.305 6.88637 116.305 6.88673C116.305 6.88709 116.305 6.88745 116.305 6.88781C116.305 6.88817 116.305 6.88853 116.305 6.88889C116.305 6.88925 116.305 6.88961 116.305 6.88997C116.305 6.89033 116.305 6.89069 116.305 6.89105C116.305 6.89141 116.305 6.89178 116.305 6.89214C116.305 6.8925 116.305 6.89286 116.305 6.89322C116.305 6.89358 116.305 6.89394 116.305 6.8943C116.305 6.89466 116.305 6.89502 116.305 6.89539C116.305 6.89575 116.305 6.89611 116.305 6.89647C116.305 6.89683 116.305 6.89719 116.305 6.89755C116.305 6.89792 116.305 6.89828 116.305 6.89864C116.305 6.899 116.305 6.89936 116.305 6.89973C116.305 6.90009 116.305 6.90045 116.305 6.90081C116.305 6.90118 116.305 6.90154 116.305 6.9019C116.305 6.90226 116.305 6.90263 116.305 6.90299C116.305 6.90335 116.305 6.90371 116.305 6.90408C116.305 6.90444 116.305 6.9048 116.305 6.90517C116.305 6.90553 116.305 6.90589 116.305 6.90626C116.305 6.90662 116.305 6.90698 116.305 6.90735C116.305 6.90771 116.305 6.90808 116.305 6.90844C116.305 6.9088 116.305 6.90917 116.305 6.90953C116.305 6.9099 116.305 6.91026 116.305 6.91062C116.305 6.91099 116.305 6.91135 116.305 6.91172C116.305 6.91208 116.305 6.91245 116.305 6.91281C116.305 6.91318 116.305 6.91354 116.305 6.91391C116.305 6.91427 116.305 6.91464 116.305 6.915C116.305 6.91537 116.305 6.91573 116.305 6.9161C116.305 6.91646 116.305 6.91683 116.305 6.91719C116.305 6.91756 116.305 6.91793 116.305 6.91829C116.305 6.91866 116.305 6.91902 116.305 6.91939C116.305 6.91976 116.305 6.92012 116.305 6.92049C116.305 6.92085 116.305 6.92122 116.305 6.92159C116.305 6.92195 116.305 6.92232 116.305 6.92269C116.305 6.92305 116.305 6.92342 116.305 6.92379C116.305 6.92416 116.305 6.92452 116.305 6.92489C116.305 6.92526 116.305 6.92563 116.305 6.92599C116.305 6.92636 116.305 6.92673 116.305 6.9271C116.305 6.92746 116.305 6.92783 116.305 6.9282C116.305 6.92857 116.305 6.92894 116.305 6.9293C116.305 6.92967 116.305 6.93004 116.305 6.93041C116.305 6.93078 116.305 6.93115 116.305 6.93151C116.305 6.93188 116.305 6.93225 116.305 6.93262C116.305 6.93299 116.305 6.93336 116.305 6.93373C116.305 6.9341 116.305 6.93447 116.305 6.93484C116.305 6.93521 116.305 6.93558 116.305 6.93595C116.305 6.93632 116.305 6.93669 116.305 6.93706C116.305 6.93743 116.305 6.9378 116.305 6.93817C116.305 6.93854 116.305 6.93891 116.305 6.93928C116.305 6.93965 116.305 6.94002 116.305 6.94039C116.305 6.94076 116.305 6.94113 116.305 6.9415C116.305 6.94187 116.305 6.94224 116.305 6.94261C116.305 6.94299 116.305 6.94336 116.305 6.94373C116.305 6.9441 116.305 6.94447 116.305 6.94484C116.305 6.94522 116.305 6.94559 116.305 6.94596C116.305 6.94633 116.305 6.9467 116.305 6.94708C116.305 6.94745 116.305 6.94782 116.305 6.94819C116.305 6.94857 116.305 6.94894 116.305 6.94931C116.305 6.94968 116.305 6.95006 116.305 6.95043C116.305 6.9508 116.305 6.95118 116.305 6.95155C116.305 6.95192 116.305 6.9523 116.305 6.95267C116.305 6.95304 116.305 6.95342 116.305 6.95379C116.305 6.95416 116.305 6.95454 116.305 6.95491C116.305 6.95529 116.305 6.95566 116.305 6.95604C116.305 6.95641 116.305 6.95678 116.305 6.95716C116.305 6.95753 116.305 6.95791 116.305 6.95828C116.305 6.95866 116.305 6.95903 116.305 6.95941C116.305 6.95978 116.305 6.96016 116.305 6.96053C116.305 6.96091 116.305 6.96129 116.305 6.96166C116.305 6.96204 116.305 6.96241 116.305 6.96279C116.305 6.96316 116.305 6.96354 116.305 6.96392C116.305 6.96429 116.305 6.96467 116.305 6.96505C116.305 6.96542 116.305 6.9658 116.305 6.96618C116.305 6.96655 116.305 6.96693 116.305 6.96731C116.305 6.96768 116.305 6.96806 116.305 6.96844C116.305 6.96882 116.305 6.96919 116.305 6.96957C116.305 6.96995 116.305 6.97033 116.305 6.97071C116.305 6.97108 116.305 6.97146 116.305 6.97184C116.305 6.97222 116.305 6.9726 116.305 6.97298C116.305 6.97335 116.305 6.97373 116.305 6.97411C116.305 6.97449 116.305 6.97487 116.305 6.97525C116.305 6.97563 116.305 6.97601 116.305 6.97639C116.305 6.97677 116.305 6.97714 116.305 6.97752C116.305 6.9779 116.305 6.97828 116.305 6.97866C116.305 6.97904 116.305 6.97942 116.305 6.9798C116.305 6.98018 116.305 6.98057 116.305 6.98095C116.305 6.98133 116.305 6.98171 116.305 6.98209C116.305 6.98247 116.305 6.98285 116.305 6.98323C116.305 6.98361 116.305 6.98399 116.305 6.98438H118.305C118.305 6.98399 118.305 6.98361 118.305 6.98323C118.305 6.98285 118.305 6.98247 118.305 6.98209C118.305 6.98171 118.305 6.98133 118.305 6.98095C118.305 6.98057 118.305 6.98018 118.305 6.9798C118.305 6.97942 118.305 6.97904 118.305 6.97866C118.305 6.97828 118.305 6.9779 118.305 6.97752C118.305 6.97714 118.305 6.97677 118.305 6.97639C118.305 6.97601 118.305 6.97563 118.305 6.97525C118.305 6.97487 118.305 6.97449 118.305 6.97411C118.305 6.97373 118.305 6.97335 118.305 6.97298C118.305 6.9726 118.305 6.97222 118.305 6.97184C118.305 6.97146 118.305 6.97108 118.305 6.97071C118.305 6.97033 118.305 6.96995 118.305 6.96957C118.305 6.96919 118.305 6.96882 118.305 6.96844C118.305 6.96806 118.305 6.96768 118.305 6.96731C118.305 6.96693 118.305 6.96655 118.305 6.96618C118.305 6.9658 118.305 6.96542 118.305 6.96505C118.305 6.96467 118.305 6.96429 118.305 6.96392C118.305 6.96354 118.305 6.96316 118.305 6.96279C118.305 6.96241 118.305 6.96204 118.305 6.96166C118.305 6.96129 118.305 6.96091 118.305 6.96053C118.305 6.96016 118.305 6.95978 118.305 6.95941C118.305 6.95903 118.305 6.95866 118.305 6.95828C118.305 6.95791 118.305 6.95753 118.305 6.95716C118.305 6.95678 118.305 6.95641 118.305 6.95604C118.305 6.95566 118.305 6.95529 118.305 6.95491C118.305 6.95454 118.305 6.95416 118.305 6.95379C118.305 6.95342 118.305 6.95304 118.305 6.95267C118.305 6.9523 118.305 6.95192 118.305 6.95155C118.305 6.95118 118.305 6.9508 118.305 6.95043C118.305 6.95006 118.305 6.94968 118.305 6.94931C118.305 6.94894 118.305 6.94857 118.305 6.94819C118.305 6.94782 118.305 6.94745 118.305 6.94708C118.305 6.9467 118.305 6.94633 118.305 6.94596C118.305 6.94559 118.305 6.94522 118.305 6.94484C118.305 6.94447 118.305 6.9441 118.305 6.94373C118.305 6.94336 118.305 6.94299 118.305 6.94261C118.305 6.94224 118.305 6.94187 118.305 6.9415C118.305 6.94113 118.305 6.94076 118.305 6.94039C118.305 6.94002 118.305 6.93965 118.305 6.93928C118.305 6.93891 118.305 6.93854 118.305 6.93817C118.305 6.9378 118.305 6.93743 118.305 6.93706C118.305 6.93669 118.305 6.93632 118.305 6.93595C118.305 6.93558 118.305 6.93521 118.305 6.93484C118.305 6.93447 118.305 6.9341 118.305 6.93373C118.305 6.93336 118.305 6.93299 118.305 6.93262C118.305 6.93225 118.305 6.93188 118.305 6.93151C118.305 6.93115 118.305 6.93078 118.305 6.93041C118.305 6.93004 118.305 6.92967 118.305 6.9293C118.305 6.92894 118.305 6.92857 118.305 6.9282C118.305 6.92783 118.305 6.92746 118.305 6.9271C118.305 6.92673 118.305 6.92636 118.305 6.92599C118.305 6.92563 118.305 6.92526 118.305 6.92489C118.305 6.92452 118.305 6.92416 118.305 6.92379C118.305 6.92342 118.305 6.92305 118.305 6.92269C118.305 6.92232 118.305 6.92195 118.305 6.92159C118.305 6.92122 118.305 6.92085 118.305 6.92049C118.305 6.92012 118.305 6.91976 118.305 6.91939C118.305 6.91902 118.305 6.91866 118.305 6.91829C118.305 6.91793 118.305 6.91756 118.305 6.91719C118.305 6.91683 118.305 6.91646 118.305 6.9161C118.305 6.91573 118.305 6.91537 118.305 6.915C118.305 6.91464 118.305 6.91427 118.305 6.91391C118.305 6.91354 118.305 6.91318 118.305 6.91281C118.305 6.91245 118.305 6.91208 118.305 6.91172C118.305 6.91135 118.305 6.91099 118.305 6.91062C118.305 6.91026 118.305 6.9099 118.305 6.90953C118.305 6.90917 118.305 6.9088 118.305 6.90844C118.305 6.90808 118.305 6.90771 118.305 6.90735C118.305 6.90698 118.305 6.90662 118.305 6.90626C118.305 6.90589 118.305 6.90553 118.305 6.90517C118.305 6.9048 118.305 6.90444 118.305 6.90408C118.305 6.90371 118.305 6.90335 118.305 6.90299C118.305 6.90263 118.305 6.90226 118.305 6.9019C118.305 6.90154 118.305 6.90118 118.305 6.90081C118.305 6.90045 118.305 6.90009 118.305 6.89973C118.305 6.89936 118.305 6.899 118.305 6.89864C118.305 6.89828 118.305 6.89792 118.305 6.89755C118.305 6.89719 118.305 6.89683 118.305 6.89647C118.305 6.89611 118.305 6.89575 118.305 6.89539C118.305 6.89502 118.305 6.89466 118.305 6.8943C118.305 6.89394 118.305 6.89358 118.305 6.89322C118.305 6.89286 118.305 6.8925 118.305 6.89214C118.305 6.89178 118.305 6.89141 118.305 6.89105C118.305 6.89069 118.305 6.89033 118.305 6.88997C118.305 6.88961 118.305 6.88925 118.305 6.88889C118.305 6.88853 118.305 6.88817 118.305 6.88781C118.305 6.88745 118.305 6.88709 118.305 6.88673C118.305 6.88637 118.305 6.88601 118.305 6.88565C118.305 6.88529 118.305 6.88493 118.305 6.88457C118.305 6.88422 118.305 6.88386 118.305 6.8835C118.305 6.88314 118.305 6.88278 118.305 6.88242C118.305 6.88206 118.305 6.8817 118.305 6.88134C118.305 6.88098 118.305 6.88063 118.305 6.88027C118.305 6.87991 118.305 6.87955 118.305 6.87919C118.305 6.87883 118.305 6.87847 118.305 6.87812C118.305 6.87776 118.305 6.8774 118.305 6.87704C118.305 6.87668 118.305 6.87633 118.305 6.87597C118.305 6.87561 118.305 6.87525 118.305 6.8749C118.305 6.87454 118.305 6.87418 118.305 6.87382C118.305 6.87347 118.305 6.87311 118.305 6.87275C118.305 6.87239 118.305 6.87204 118.305 6.87168C118.305 6.87132 118.305 6.87096 118.305 6.87061C118.305 6.87025 118.305 6.86989 118.305 6.86954C118.305 6.86918 118.305 6.86882 118.305 6.86847C118.305 6.86811 118.305 6.86775 118.305 6.8674C118.305 6.86704 118.305 6.86668 118.305 6.86633C118.305 6.86597 118.305 6.86562 118.305 6.86526C118.305 6.8649 118.305 6.86455 118.305 6.86419C118.305 6.86384 118.305 6.86348 118.305 6.86312C118.305 6.86277 118.305 6.86241 118.305 6.86206C118.305 6.8617 118.305 6.86135 118.305 6.86099C118.305 6.86064 118.305 6.86028 118.305 6.85993C118.305 6.85957 118.305 6.85921 118.305 6.85886C118.305 6.8585 118.305 6.85815 118.305 6.85779C118.305 6.85744 118.305 6.85709 118.305 6.85673C118.305 6.85638 118.305 6.85602 118.305 6.85567C118.305 6.85531 118.305 6.85496 118.305 6.8546C118.305 6.85425 118.305 6.85389 118.305 6.85354C118.305 6.85319 118.305 6.85283 118.305 6.85248C118.305 6.85212 118.305 6.85177 118.305 6.85142C118.305 6.85106 118.305 6.85071 118.305 6.85035C118.305 6.85 118.305 6.84965 118.305 6.84929C118.305 6.84894 118.305 6.84859 118.305 6.84823C118.305 6.84788 118.305 6.84753 118.305 6.84717C118.305 6.84682 118.305 6.84647 118.305 6.84611C118.305 6.84576 118.305 6.84541 118.305 6.84505C118.305 6.8447 118.305 6.84435 118.305 6.84399C118.305 6.84364 118.305 6.84329 118.305 6.84294C118.305 6.84258 118.305 6.84223 118.305 6.84188C118.305 6.84153 118.305 6.84117 118.305 6.84082C118.305 6.84047 118.305 6.84012 118.305 6.83976C118.305 6.83941 118.305 6.83906 118.305 6.83871C118.305 6.83835 118.305 6.838 118.305 6.83765C118.305 6.8373 118.305 6.83695 118.305 6.8366C118.305 6.83624 118.305 6.83589 118.305 6.83554C118.305 6.83519 118.305 6.83484 118.305 6.83448C118.305 6.83413 118.305 6.83378 118.305 6.83343C118.305 6.83308 118.305 6.83273 118.305 6.83238C118.305 6.83202 118.305 6.83167 118.305 6.83132C118.305 6.83097 118.305 6.83062 118.305 6.83027C118.305 6.82992 118.305 6.82957 118.305 6.82922C118.305 6.82887 118.305 6.82851 118.305 6.82816C118.305 6.82781 118.305 6.82746 118.305 6.82711C118.305 6.82676 118.305 6.82641 118.305 6.82606C118.305 6.82571 118.305 6.82536 118.305 6.82501C118.305 6.82466 118.305 6.82431 118.305 6.82396C118.305 6.82361 118.305 6.82326 118.305 6.82291C118.305 6.82256 118.305 6.82221 118.305 6.82186C118.305 6.82151 118.305 6.82116 118.305 6.82081C118.305 6.82046 118.305 6.82011 118.305 6.81976C118.305 6.81941 118.305 6.81906 118.305 6.81871C118.305 6.81836 118.305 6.81801 118.305 6.81766C118.305 6.81731 118.305 6.81696 118.305 6.81661C118.305 6.81626 118.305 6.81591 118.305 6.81556C118.305 6.81521 118.305 6.81487 118.305 6.81452C118.305 6.81417 118.305 6.81382 118.305 6.81347C118.305 6.81312 118.305 6.81277 118.305 6.81242C118.305 6.81207 118.305 6.81172 118.305 6.81138C118.305 6.81103 118.305 6.81068 118.305 6.81033C118.305 6.80998 118.305 6.80963 118.305 6.80928C118.305 6.80894 118.305 6.80859 118.305 6.80824C118.305 6.80789 118.305 6.80754 118.305 6.80719C118.305 6.80684 118.305 6.8065 118.305 6.80615C118.305 6.8058 118.305 6.80545 118.305 6.8051C118.305 6.80476 118.305 6.80441 118.305 6.80406C118.305 6.80371 118.305 6.80336 118.305 6.80302C118.305 6.80267 118.305 6.80232 118.305 6.80197C118.305 6.80162 118.305 6.80128 118.305 6.80093C118.305 6.80058 118.305 6.80023 118.305 6.79988C118.305 6.79954 118.305 6.79919 118.305 6.79884C118.305 6.79849 118.305 6.79815 118.305 6.7978C118.305 6.79745 118.305 6.7971 118.305 6.79676C118.305 6.79641 118.305 6.79606 118.305 6.79572C118.305 6.79537 118.305 6.79502 118.305 6.79467C118.305 6.79433 118.305 6.79398 118.305 6.79363C118.305 6.79329 118.305 6.79294 118.305 6.79259C118.305 6.79224 118.305 6.7919 118.305 6.79155C118.305 6.7912 118.305 6.79086 118.305 6.79051C118.305 6.79016 118.305 6.78982 118.305 6.78947C118.305 6.78912 118.305 6.78878 118.305 6.78843C118.305 6.78808 118.305 6.78774 118.305 6.78739C118.305 6.78704 118.305 6.7867 118.305 6.78635C118.305 6.78601 118.305 6.78566 118.305 6.78531C118.305 6.78497 118.305 6.78462 118.305 6.78427C118.305 6.78393 118.305 6.78358 118.305 6.78324C118.305 6.78289 118.305 6.78254 118.305 6.7822C118.305 6.78185 118.305 6.7815 118.305 6.78116C118.305 6.78081 118.305 6.78047 118.305 6.78012C118.305 6.77977 118.305 6.77943 118.305 6.77908C118.305 6.77874 118.305 6.77839 118.305 6.77805C118.305 6.7777 118.305 6.77735 118.305 6.77701C118.305 6.77666 118.305 6.77632 118.305 6.77597C118.305 6.77563 118.305 6.77528 118.305 6.77493C118.305 6.77459 118.305 6.77424 118.305 6.7739C118.305 6.77355 118.305 6.77321 118.305 6.77286C118.305 6.77252 118.305 6.77217 118.305 6.77183C118.305 6.77148 118.305 6.77113 118.305 6.77079C118.305 6.77044 118.305 6.7701 118.305 6.76975C118.305 6.76941 118.305 6.76906 118.305 6.76872C118.305 6.76837 118.305 6.76803 118.305 6.76768C118.305 6.76734 118.305 6.76699 118.305 6.76665C118.305 6.7663 118.305 6.76596 118.305 6.76561C118.305 6.76527 118.305 6.76492 118.305 6.76458C118.305 6.76423 118.305 6.76389 118.305 6.76354C118.305 6.7632 118.305 6.76285 118.305 6.76251C118.305 6.76216 118.305 6.76182 118.305 6.76147C118.305 6.76113 118.305 6.76079 118.305 6.76044C118.305 6.7601 118.305 6.75975 118.305 6.75941C118.305 6.75906 118.305 6.75872 118.305 6.75837C118.305 6.75803 118.305 6.75768 118.305 6.75734C118.305 6.75699 118.305 6.75665 118.305 6.75631C118.305 6.75596 118.305 6.75562 118.305 6.75527C118.305 6.75493 118.305 6.75458 118.305 6.75424C118.305 6.75389 118.305 6.75355 118.305 6.75321C118.305 6.75286 118.305 6.75252 118.305 6.75217C118.305 6.75183 118.305 6.75148 118.305 6.75114C118.305 6.7508 118.305 6.75045 118.305 6.75011C118.305 6.74976 118.305 6.74942 118.305 6.74908C118.305 6.74873 118.305 6.74839 118.305 6.74804C118.305 6.7477 118.305 6.74736 118.305 6.74701C118.305 6.74667 118.305 6.74632 118.305 6.74598C118.305 6.74564 118.305 6.74529 118.305 6.74495C118.305 6.7446 118.305 6.74426 118.305 6.74392C118.305 6.74357 118.305 6.74323 118.305 6.74288C118.305 6.74254 118.305 6.7422 118.305 6.74185C118.305 6.74151 118.305 6.74116 118.305 6.74082C118.305 6.74048 118.305 6.74013 118.305 6.73979C118.305 6.73945 118.305 6.7391 118.305 6.73876C118.305 6.73841 118.305 6.73807 118.305 6.73773C118.305 6.73738 118.305 6.73704 118.305 6.7367C118.305 6.73635 118.305 6.73601 118.305 6.73566C118.305 6.73532 118.305 6.73498 118.305 6.73463C118.305 6.73429 118.305 6.73395 118.305 6.7336C118.305 6.73326 118.305 6.73292 118.305 6.73257C118.305 6.73223 118.305 6.73188 118.305 6.73154C118.305 6.7312 118.305 6.73085 118.305 6.73051C118.305 6.73017 118.305 6.72982 118.305 6.72948C118.305 6.72914 118.305 6.72879 118.305 6.72845C118.305 6.72811 118.305 6.72776 118.305 6.72742C118.305 6.72708 118.305 6.72673 118.305 6.72639C118.305 6.72605 118.305 6.7257 118.305 6.72536C118.305 6.72502 118.305 6.72467 118.305 6.72433C118.305 6.72398 118.305 6.72364 118.305 6.7233C118.305 6.72295 118.305 6.72261 118.305 6.72227C118.305 6.72192 118.305 6.72158 118.305 6.72124C118.305 6.72089 118.305 6.72055 118.305 6.72021C118.305 6.71986 118.305 6.71952 118.305 6.71918C118.305 6.71883 118.305 6.71849 118.305 6.71815C118.305 6.7178 118.305 6.71746 118.305 6.71712C118.305 6.71677 118.305 6.71643 118.305 6.71609C118.305 6.71574 118.305 6.7154 118.305 6.71506C118.305 6.71471 118.305 6.71437 118.305 6.71403C118.305 6.71368 118.305 6.71334 118.305 6.713C118.305 6.71265 118.305 6.71231 118.305 6.71197C118.305 6.71162 118.305 6.71128 118.305 6.71094C118.305 6.71059 118.305 6.71025 118.305 6.70991C118.305 6.70956 118.305 6.70922 118.305 6.70888C118.305 6.70853 118.305 6.70819 118.305 6.70785C118.305 6.7075 118.305 6.70716 118.305 6.70682C118.305 6.70647 118.305 6.70613 118.305 6.70579C118.305 6.70544 118.305 6.7051 118.305 6.70476C118.305 6.70441 118.305 6.70407 118.305 6.70373C118.305 6.70338 118.305 6.70304 118.305 6.7027C118.305 6.70235 118.305 6.70201 118.305 6.70167C118.305 6.70132 118.305 6.70098 118.305 6.70064C118.305 6.70029 118.305 6.69995 118.305 6.69961C118.305 6.69926 118.305 6.69892 118.305 6.69858C118.305 6.69823 118.305 6.69789 118.305 6.69755C118.305 6.6972 118.305 6.69686 118.305 6.69652C118.305 6.69617 118.305 6.69583 118.305 6.69549C118.305 6.69514 118.305 6.6948 118.305 6.69446C118.305 6.69411 118.305 6.69377 118.305 6.69343C118.305 6.69308 118.305 6.69274 118.305 6.69239C118.305 6.69205 118.305 6.69171 118.305 6.69136C118.305 6.69102 118.305 6.69068 118.305 6.69033C118.305 6.68999 118.305 6.68965 118.305 6.6893C118.305 6.68896 118.305 6.68862 118.305 6.68827C118.305 6.68793 118.305 6.68758 118.305 6.68724C118.305 6.6869 118.305 6.68655 118.305 6.68621C118.305 6.68587 118.305 6.68552 118.305 6.68518C118.305 6.68484 118.305 6.68449 118.305 6.68415C118.305 6.6838 118.305 6.68346 118.305 6.68312C118.305 6.68277 118.305 6.68243 118.305 6.68209C118.305 6.68174 118.305 6.6814 118.305 6.68105C118.305 6.68071 118.305 6.68037 118.305 6.68002C118.305 6.67968 118.305 6.67934 118.305 6.67899C118.305 6.67865 118.305 6.6783 118.305 6.67796C118.305 6.67762 118.305 6.67727 118.305 6.67693C118.305 6.67658 118.305 6.67624 118.305 6.6759C118.305 6.67555 118.305 6.67521 118.305 6.67486C118.305 6.67452 118.305 6.67418 118.305 6.67383C118.305 6.67349 118.305 6.67314 118.305 6.6728C118.305 6.67245 118.305 6.67211 118.305 6.67177C118.305 6.67142 118.305 6.67108 118.305 6.67073C118.305 6.67039 118.305 6.67005 118.305 6.6697C118.305 6.66936 118.305 6.66901 118.305 6.66867C118.305 6.66832 118.305 6.66798 118.305 6.66764C118.305 6.66729 118.305 6.66695 118.305 6.6666C118.305 6.66626 118.305 6.66591 118.305 6.66557C118.305 6.66523 118.305 6.66488 118.305 6.66454C118.305 6.66419 118.305 6.66385 118.305 6.6635C118.305 6.66316 118.305 6.66281 118.305 6.66247C118.305 6.66212 118.305 6.66178 118.305 6.66143C118.305 6.66109 118.305 6.66075 118.305 6.6604C118.305 6.66006 118.305 6.65971 118.305 6.65937C118.305 6.65902 118.305 6.65868 118.305 6.65833C118.305 6.65799 118.305 6.65764 118.305 6.6573C118.305 6.65695 118.305 6.65661 118.305 6.65626C118.305 6.65592 118.305 6.65557 118.305 6.65523C118.305 6.65488 118.305 6.65454 118.305 6.65419C118.305 6.65385 118.305 6.6535 118.305 6.65316C118.305 6.65281 118.305 6.65247 118.305 6.65212C118.305 6.65178 118.305 6.65143 118.305 6.65109C118.305 6.65074 118.305 6.6504 118.305 6.65005C118.305 6.6497 118.305 6.64936 118.305 6.64901C118.305 6.64867 118.305 6.64832 118.305 6.64798C118.305 6.64763 118.305 6.64729 118.305 6.64694C118.305 6.6466 118.305 6.64625 118.305 6.6459C118.305 6.64556 118.305 6.64521 118.305 6.64487C118.305 6.64452 118.305 6.64418 118.305 6.64383C118.305 6.64348 118.305 6.64314 118.305 6.64279C118.305 6.64245 118.305 6.6421 118.305 6.64175C118.305 6.64141 118.305 6.64106 118.305 6.64072C118.305 6.64037 118.305 6.64002 118.305 6.63968C118.305 6.63933 118.305 6.63899 118.305 6.63864C118.305 6.63829 118.305 6.63795 118.305 6.6376C118.305 6.63726 118.305 6.63691 118.305 6.63656C118.305 6.63622 118.305 6.63587 118.305 6.63552C118.305 6.63518 118.305 6.63483 118.305 6.63448C118.305 6.63414 118.305 6.63379 118.305 6.63344C118.305 6.6331 118.305 6.63275 118.305 6.6324C118.305 6.63206 118.305 6.63171 118.305 6.63136C118.305 6.63102 118.305 6.63067 118.305 6.63032C118.305 6.62998 118.305 6.62963 118.305 6.62928C118.305 6.62894 118.305 6.62859 118.305 6.62824C118.305 6.62789 118.305 6.62755 118.305 6.6272C118.305 6.62685 118.305 6.62651 118.305 6.62616C118.305 6.62581 118.305 6.62546 118.305 6.62512C118.305 6.62477 118.305 6.62442 118.305 6.62407C118.305 6.62373 118.305 6.62338 118.305 6.62303C118.305 6.62269 118.305 6.62234 118.305 6.62199C118.305 6.62164 118.305 6.62129 118.305 6.62095C118.305 6.6206 118.305 6.62025 118.305 6.6199C118.305 6.61956 118.305 6.61921 118.305 6.61886C118.305 6.61851 118.305 6.61816 118.305 6.61782C118.305 6.61747 118.305 6.61712 118.305 6.61677C118.305 6.61642 118.305 6.61608 118.305 6.61573C118.305 6.61538 118.305 6.61503 118.305 6.61468C118.305 6.61433 118.305 6.61399 118.305 6.61364C118.305 6.61329 118.305 6.61294 118.305 6.61259C118.305 6.61224 118.305 6.61189 118.305 6.61155C118.305 6.6112 118.305 6.61085 118.305 6.6105C118.305 6.61015 118.305 6.6098 118.305 6.60945C118.305 6.6091 118.305 6.60876 118.305 6.60841C118.305 6.60806 118.305 6.60771 118.305 6.60736C118.305 6.60701 118.305 6.60666 118.305 6.60631C118.305 6.60596 118.305 6.60561 118.305 6.60526C118.305 6.60491 118.305 6.60456 118.305 6.60421C118.305 6.60387 118.305 6.60352 118.305 6.60317C118.305 6.60282 118.305 6.60247 118.305 6.60212C118.305 6.60177 118.305 6.60142 118.305 6.60107C118.305 6.60072 118.305 6.60037 118.305 6.60002C118.305 6.59967 118.305 6.59932 118.305 6.59897C118.305 6.59862 118.305 6.59827 118.305 6.59792C118.305 6.59757 118.305 6.59722 118.305 6.59687C118.305 6.59652 118.305 6.59617 118.305 6.59582C118.305 6.59546 118.305 6.59511 118.305 6.59476C118.305 6.59441 118.305 6.59406 118.305 6.59371C118.305 6.59336 118.305 6.59301 118.305 6.59266C118.305 6.59231 118.305 6.59196 118.305 6.59161C118.305 6.59125 118.305 6.5909 118.305 6.59055C118.305 6.5902 118.305 6.58985 118.305 6.5895C118.305 6.58915 118.305 6.5888 118.305 6.58844C118.305 6.58809 118.305 6.58774 118.305 6.58739C118.305 6.58704 118.305 6.58669 118.305 6.58634C118.305 6.58598 118.305 6.58563 118.305 6.58528C118.305 6.58493 118.305 6.58458 118.305 6.58422C118.305 6.58387 118.305 6.58352 118.305 6.58317C118.305 6.58282 118.305 6.58246 118.305 6.58211C118.305 6.58176 118.305 6.58141 118.305 6.58105C118.305 6.5807 118.305 6.58035 118.305 6.58C118.305 6.57964 118.305 6.57929 118.305 6.57894C118.305 6.57859 118.305 6.57823 118.305 6.57788C118.305 6.57753 118.305 6.57718 118.305 6.57682C118.305 6.57647 118.305 6.57612 118.305 6.57576C118.305 6.57541 118.305 6.57506 118.305 6.5747C118.305 6.57435 118.305 6.574 118.305 6.57364C118.305 6.57329 118.305 6.57294 118.305 6.57258C118.305 6.57223 118.305 6.57188 118.305 6.57152C118.305 6.57117 118.305 6.57081 118.305 6.57046C118.305 6.57011 118.305 6.56975 118.305 6.5694C118.305 6.56904 118.305 6.56869 118.305 6.56834C118.305 6.56798 118.305 6.56763 118.305 6.56727C118.305 6.56692 118.305 6.56656 118.305 6.56621C118.305 6.56585 118.305 6.5655 118.305 6.56514C118.305 6.56479 118.305 6.56444 118.305 6.56408C118.305 6.56373 118.305 6.56337 118.305 6.56302C118.305 6.56266 118.305 6.5623 118.305 6.56195C118.305 6.56159 118.305 6.56124 118.305 6.56088C118.305 6.56053 118.305 6.56017 118.305 6.55982C118.305 6.55946 118.305 6.55911 118.305 6.55875C118.305 6.55839 118.305 6.55804 118.305 6.55768C118.305 6.55733 118.305 6.55697 118.305 6.55662C118.305 6.55626 118.305 6.5559 118.305 6.55555C118.305 6.55519 118.305 6.55483 118.305 6.55448C118.305 6.55412 118.305 6.55376 118.305 6.55341C118.305 6.55305 118.305 6.55269 118.305 6.55234C118.305 6.55198 118.305 6.55162 118.305 6.55127C118.305 6.55091 118.305 6.55055 118.305 6.5502C118.305 6.54984 118.305 6.54948 118.305 6.54912C118.305 6.54877 118.305 6.54841 118.305 6.54805C118.305 6.5477 118.305 6.54734 118.305 6.54698C118.305 6.54662 118.305 6.54626 118.305 6.54591C118.305 6.54555 118.305 6.54519 118.305 6.54483C118.305 6.54447 118.305 6.54412 118.305 6.54376C118.305 6.5434 118.305 6.54304 118.305 6.54268C118.305 6.54233 118.305 6.54197 118.305 6.54161C118.305 6.54125 118.305 6.54089 118.305 6.54053C118.305 6.54017 118.305 6.53981 118.305 6.53946C118.305 6.5391 118.305 6.53874 118.305 6.53838C118.305 6.53802 118.305 6.53766 118.305 6.5373C118.305 6.53694 118.305 6.53658 118.305 6.53622C118.305 6.53586 118.305 6.5355 118.305 6.53514C118.305 6.53478 118.305 6.53442 118.305 6.53406C118.305 6.5337 118.305 6.53334 118.305 6.53298C118.305 6.53262 118.305 6.53226 118.305 6.5319C118.305 6.53154 118.305 6.53118 118.305 6.53082C118.305 6.53046 118.305 6.5301 118.305 6.52974C118.305 6.52938 118.305 6.52902 118.305 6.52866C118.305 6.5283 118.305 6.52793 118.305 6.52757C118.305 6.52721 118.305 6.52685 118.305 6.52649C118.305 6.52613 118.305 6.52577 118.305 6.52541C118.305 6.52504 118.305 6.52468 118.305 6.52432C118.305 6.52396 118.305 6.5236 118.305 6.52323C118.305 6.52287 118.305 6.52251 118.305 6.52215C118.305 6.52179 118.305 6.52142 118.305 6.52106C118.305 6.5207 118.305 6.52034 118.305 6.51997C118.305 6.51961 118.305 6.51925 118.305 6.51889C118.305 6.51852 118.305 6.51816 118.305 6.5178C118.305 6.51743 118.305 6.51707 118.305 6.51671C118.305 6.51634 118.305 6.51598 118.305 6.51562C118.305 6.51525 118.305 6.51489 118.305 6.51453C118.305 6.51416 118.305 6.5138 118.305 6.51344C118.305 6.51307 118.305 6.51271 118.305 6.51234C118.305 6.51198 118.305 6.51162 118.305 6.51125C118.305 6.51089 118.305 6.51052 118.305 6.51016C118.305 6.50979 118.305 6.50943 118.305 6.50906C118.305 6.5087 118.305 6.50833 118.305 6.50797C118.305 6.5076 118.305 6.50724 118.305 6.50687C118.305 6.50651 118.305 6.50614 118.305 6.50578C118.305 6.50541 118.305 6.50505 118.305 6.50468C118.305 6.50432 118.305 6.50395 118.305 6.50358C118.305 6.50322 118.305 6.50285 118.305 6.50249C118.305 6.50212 118.305 6.50175 118.305 6.50139C118.305 6.50102 118.305 6.50065 118.305 6.50029C118.305 6.49992 118.305 6.49955 118.305 6.49919C118.305 6.49882 118.305 6.49845 118.305 6.49809C118.305 6.49772 118.305 6.49735 118.305 6.49698C118.305 6.49662 118.305 6.49625 118.305 6.49588C118.305 6.49551 118.305 6.49515 118.305 6.49478C118.305 6.49441 118.305 6.49404 118.305 6.49368C118.305 6.49331 118.305 6.49294 118.305 6.49257C118.305 6.4922 118.305 6.49183 118.305 6.49147C118.305 6.4911 118.305 6.49073 118.305 6.49036C118.305 6.48999 118.305 6.48962 118.305 6.48925C118.305 6.48888 118.305 6.48852 118.305 6.48815C118.305 6.48778 118.305 6.48741 118.305 6.48704C118.305 6.48667 118.305 6.4863 118.305 6.48593C118.305 6.48556 118.305 6.48519 118.305 6.48482C118.305 6.48445 118.305 6.48408 118.305 6.48371C118.305 6.48334 118.305 6.48297 118.305 6.4826C118.305 6.48223 118.305 6.48186 118.305 6.48149C118.305 6.48112 118.305 6.48074 118.305 6.48037C118.305 6.48 118.305 6.47963 118.305 6.47926C118.305 6.47889 118.305 6.47852 118.305 6.47815C118.305 6.47778 118.305 6.4774 118.305 6.47703C118.305 6.47666 118.305 6.47629 118.305 6.47592C118.305 6.47554 118.305 6.47517 118.305 6.4748C118.305 6.47443 118.305 6.47405 118.305 6.47368C118.305 6.47331 118.305 6.47294 118.305 6.47256C118.305 6.47219 118.305 6.47182 118.305 6.47145C118.305 6.47107 118.305 6.4707 118.305 6.47033C118.305 6.46995 118.305 6.46958 118.305 6.46921C118.305 6.46883 118.305 6.46846 118.305 6.46808C118.305 6.46771 118.305 6.46734 118.305 6.46696C118.305 6.46659 118.305 6.46621 118.305 6.46584C118.305 6.46547 118.305 6.46509 118.305 6.46472C118.305 6.46434 118.305 6.46397 118.305 6.46359C118.305 6.46322 118.305 6.46284 118.305 6.46247C118.305 6.46209 118.305 6.46172 118.305 6.46134C118.305 6.46097 118.305 6.46059 118.305 6.46021C118.305 6.45984 118.305 6.45946 118.305 6.45909C118.305 6.45871 118.305 6.45833 118.305 6.45796C118.305 6.45758 118.305 6.45721 118.305 6.45683C118.305 6.45645 118.305 6.45608 118.305 6.4557C118.305 6.45532 118.305 6.45494 118.305 6.45457C118.305 6.45419 118.305 6.45381 118.305 6.45344C118.305 6.45306 118.305 6.45268 118.305 6.4523C118.305 6.45193 118.305 6.45155 118.305 6.45117C118.305 6.45079 118.305 6.45041 118.305 6.45004C118.305 6.44966 118.305 6.44928 118.305 6.4489C118.305 6.44852 118.305 6.44814 118.305 6.44776C118.305 6.44738 118.305 6.44701 118.305 6.44663C118.305 6.44625 118.305 6.44587 118.305 6.44549C118.305 6.44511 118.305 6.44473 118.305 6.44435C118.305 6.44397 118.305 6.44359 118.305 6.44321C118.305 6.44283 118.305 6.44245 118.305 6.44207C118.305 6.44169 118.305 6.44131 118.305 6.44093C118.305 6.44055 118.305 6.44017 118.305 6.43979C118.305 6.43941 118.305 6.43902 118.305 6.43864C118.305 6.43826 118.305 6.43788 118.305 6.4375H116.305ZM116.305 6.98438C116.305 11.9837 112.536 17.625 105.664 17.625V19.625C113.87 19.625 118.305 12.8445 118.305 6.98438H116.305ZM105.664 17.625C103.513 17.625 101.555 17.0167 99.9213 15.9515L98.8287 17.6267C100.789 18.9052 103.128 19.625 105.664 19.625V17.625ZM99.251 17.7813C99.5582 17.8197 99.9292 17.8672 100.352 17.8672V15.8672C100.071 15.8672 99.8168 15.8365 99.499 15.7968L99.251 17.7813ZM100.352 17.8672C102.502 17.8672 104.473 17.1203 106.044 15.8987L104.816 14.32C103.574 15.286 102.029 15.8672 100.352 15.8672V17.8672ZM105.451 14.1096C104.082 14.0798 102.937 13.1893 102.557 11.9621L100.646 12.5535C101.282 14.6076 103.183 16.0608 105.408 16.1091L105.451 14.1096ZM101.46 13.2478C101.704 13.2826 102.021 13.3359 102.383 13.3359V11.3359C102.197 11.3359 102.046 11.3111 101.743 11.2679L101.46 13.2478ZM102.383 13.3359C102.86 13.3359 103.346 13.2334 103.68 13.1498L103.195 11.2095C102.904 11.2822 102.609 11.3359 102.383 11.3359V13.3359ZM103.641 11.2007C102.216 10.9036 101.156 9.66 101.156 8.15625H99.1562C99.1562 10.6369 100.909 12.6745 103.234 13.1587L103.641 11.2007ZM101.156 8.15625V8.11719H99.1562V8.15625H101.156ZM99.6601 8.98543C100.377 9.39533 101.203 9.57801 101.973 9.62327L102.09 7.62673C101.531 7.59386 101.029 7.46405 100.652 7.24894L99.6601 8.98543ZM102.579 7.78854C101.723 7.22735 101.195 6.28877 101.195 5.22656H99.1953C99.1953 6.97685 100.074 8.53827 101.483 9.46146L102.579 7.78854ZM101.195 5.22656C101.195 4.61429 101.347 4.09107 101.6 3.67075L99.8847 2.64175C99.4338 3.3933 99.1953 4.27634 99.1953 5.22656H101.195ZM99.971 3.79282C102.173 6.46089 105.475 8.23964 109.161 8.45148L109.276 6.45477C106.165 6.27599 103.374 4.77349 101.513 2.51969L99.971 3.79282ZM110.189 7.21059C110.13 6.97496 110.102 6.74388 110.102 6.51562H108.102C108.102 6.91237 108.151 7.30629 108.249 7.69566L110.189 7.21059ZM110.102 6.51562C110.102 4.80228 111.49 3.41406 113.203 3.41406V1.41406C110.385 1.41406 108.102 3.69772 108.102 6.51562H110.102ZM113.203 3.41406C114.096 3.41406 114.891 3.76698 115.487 4.39278L116.935 3.01347C115.969 1.99864 114.654 1.41406 113.203 1.41406V3.41406ZM116.423 4.6803C117.425 4.46257 118.426 4.0716 119.304 3.54499L118.275 1.83001C117.59 2.2409 116.794 2.55306 115.999 2.72595L116.423 4.6803ZM117.837 2.38272C117.598 3.12822 117.13 3.71041 116.483 4.0922L117.501 5.81405C118.574 5.18022 119.355 4.19991 119.741 2.99228L117.837 2.38272ZM117.087 5.94862C118.026 5.85918 118.951 5.59344 119.742 5.24194L118.93 3.41431C118.314 3.68781 117.599 3.89082 116.897 3.95763L117.087 5.94862ZM118.504 3.77342C118.03 4.48464 117.411 5.10805 116.705 5.6375L117.905 7.2375C118.761 6.59507 119.548 5.81223 120.168 4.88283L118.504 3.77342ZM156.445 5.38281L155.475 5.62535L155.479 5.64151L155.484 5.65753L156.445 5.38281ZM156.445 15.6953L155.482 15.4265L155.478 15.4396L155.475 15.4528L156.445 15.6953ZM154.57 17.5703L154.818 18.5391L154.823 18.5379L154.57 17.5703ZM137.891 17.5703L137.638 18.5379L137.643 18.5391L137.891 17.5703ZM136.016 15.6953L136.986 15.4528L136.982 15.4396L136.979 15.4265L136.016 15.6953ZM136.016 5.38281L136.977 5.65753L136.982 5.64151L136.986 5.62535L136.016 5.38281ZM137.891 3.46875L138.143 4.43637L138.151 4.43423L138.159 4.43195L137.891 3.46875ZM154.57 3.46875L154.302 4.43195L154.31 4.43423L154.318 4.43637L154.57 3.46875ZM144.062 13.7031H143.062V15.4248L144.558 14.5717L144.062 13.7031ZM149.609 10.5391L150.105 11.4077L151.628 10.5391L150.105 9.67044L149.609 10.5391ZM144.062 7.375L144.558 6.50638L143.062 5.65333V7.375H144.062ZM155.484 5.65753C155.683 6.35641 155.798 7.54091 155.857 8.63015C155.885 9.15825 155.9 9.63745 155.907 9.98473C155.911 10.1581 155.912 10.298 155.913 10.394C155.914 10.442 155.914 10.4789 155.914 10.5036C155.914 10.5159 155.914 10.5251 155.914 10.5311C155.914 10.534 155.914 10.5362 155.914 10.5376C155.914 10.5382 155.914 10.5387 155.914 10.5389C155.914 10.5391 155.914 10.5391 155.914 10.5392C155.914 10.5392 155.914 10.5391 155.914 10.5392C155.914 10.5391 155.914 10.5391 156.914 10.5391C157.914 10.5391 157.914 10.539 157.914 10.5389C157.914 10.5388 157.914 10.5387 157.914 10.5386C157.914 10.5384 157.914 10.5382 157.914 10.5379C157.914 10.5373 157.914 10.5365 157.914 10.5355C157.914 10.5334 157.914 10.5305 157.914 10.5268C157.914 10.5194 157.914 10.5086 157.914 10.4948C157.914 10.4671 157.914 10.4269 157.913 10.3756C157.912 10.2729 157.91 10.1253 157.907 9.9435C157.899 9.58033 157.884 9.07808 157.854 8.5222C157.796 7.44346 157.676 6.04984 157.407 5.10809L155.484 5.65753ZM156.914 10.5391C155.914 10.5391 155.914 10.539 155.914 10.539C155.914 10.539 155.914 10.5389 155.914 10.539C155.914 10.539 155.914 10.539 155.914 10.5392C155.914 10.5394 155.914 10.5399 155.914 10.5405C155.914 10.5418 155.914 10.544 155.914 10.5469C155.914 10.5528 155.914 10.5619 155.914 10.5741C155.914 10.5984 155.914 10.635 155.913 10.6824C155.912 10.7774 155.911 10.9159 155.907 11.0877C155.9 11.4319 155.885 11.9074 155.857 12.4331C155.798 13.515 155.684 14.704 155.482 15.4265L157.409 15.9641C157.676 15.007 157.796 13.6178 157.854 12.5415C157.884 11.9881 157.899 11.4895 157.907 11.1293C157.91 10.949 157.912 10.8028 157.913 10.701C157.914 10.6502 157.914 10.6104 157.914 10.5829C157.914 10.5692 157.914 10.5586 157.914 10.5512C157.914 10.5476 157.914 10.5447 157.914 10.5427C157.914 10.5416 157.914 10.5408 157.914 10.5402C157.914 10.5399 157.914 10.5397 157.914 10.5395C157.914 10.5394 157.914 10.5393 157.914 10.5392C157.914 10.5391 157.914 10.5391 156.914 10.5391ZM155.475 15.4528C155.334 16.0168 154.882 16.4556 154.318 16.6027L154.823 18.5379C156.056 18.2162 157.088 17.2489 157.415 15.9378L155.475 15.4528ZM154.322 16.6015C154.002 16.6836 153.357 16.7603 152.491 16.8212C151.652 16.8802 150.68 16.92 149.752 16.9467C148.824 16.9733 147.948 16.9867 147.303 16.9933C146.981 16.9967 146.717 16.9983 146.534 16.9992C146.443 16.9996 146.371 16.9998 146.323 16.9999C146.299 16.9999 146.28 17 146.268 17C146.262 17 146.257 17 146.254 17C146.253 17 146.252 17 146.251 17C146.251 17 146.25 17 146.25 17C146.25 17 146.25 17 146.25 17C146.25 17 146.25 17 146.25 18C146.25 19 146.25 19 146.25 19C146.25 19 146.25 19 146.25 19C146.251 19 146.251 19 146.251 19C146.252 19 146.254 19 146.255 19C146.259 19 146.264 19 146.27 19C146.283 19 146.302 18.9999 146.327 18.9999C146.377 18.9998 146.45 18.9996 146.543 18.9992C146.73 18.9983 146.998 18.9966 147.324 18.9932C147.977 18.9865 148.866 18.973 149.809 18.9459C150.75 18.9188 151.753 18.8781 152.632 18.8163C153.484 18.7563 154.299 18.6719 154.818 18.5391L154.322 16.6015ZM146.25 18C146.25 17 146.25 17 146.25 17C146.25 17 146.25 17 146.25 17C146.25 17 146.249 17 146.249 17C146.248 17 146.247 17 146.246 17C146.243 17 146.238 17 146.232 17C146.219 17 146.201 16.9999 146.177 16.9999C146.128 16.9998 146.056 16.9996 145.964 16.9992C145.78 16.9983 145.514 16.9967 145.19 16.9933C144.542 16.9867 143.661 16.9733 142.729 16.9467C141.795 16.92 140.818 16.8802 139.975 16.8212C139.106 16.7602 138.459 16.6835 138.138 16.6015L137.643 18.5391C138.162 18.672 138.98 18.7564 139.836 18.8163C140.717 18.8781 141.725 18.9188 142.672 18.9459C143.619 18.973 144.513 18.9865 145.17 18.9932C145.498 18.9966 145.768 18.9983 145.955 18.9992C146.049 18.9996 146.122 18.9998 146.172 18.9999C146.197 18.9999 146.217 19 146.23 19C146.236 19 146.241 19 146.245 19C146.246 19 146.248 19 146.249 19C146.249 19 146.249 19 146.25 19C146.25 19 146.25 19 146.25 19C146.25 19 146.25 19 146.25 18ZM138.143 16.6027C137.579 16.4556 137.127 16.0168 136.986 15.4528L135.045 15.9378C135.373 17.2489 136.405 18.2162 137.638 18.5379L138.143 16.6027ZM136.979 15.4265C136.777 14.704 136.663 13.515 136.604 12.4331C136.575 11.9074 136.561 11.4319 136.554 11.0877C136.55 10.9159 136.549 10.7774 136.548 10.6824C136.547 10.635 136.547 10.5984 136.547 10.5741C136.547 10.5619 136.547 10.5528 136.547 10.5469C136.547 10.544 136.547 10.5418 136.547 10.5405C136.547 10.5399 136.547 10.5394 136.547 10.5392C136.547 10.539 136.547 10.539 136.547 10.539C136.547 10.5389 136.547 10.539 136.547 10.539C136.547 10.539 136.547 10.5391 135.547 10.5391C134.547 10.5391 134.547 10.5391 134.547 10.5392C134.547 10.5393 134.547 10.5394 134.547 10.5395C134.547 10.5397 134.547 10.5399 134.547 10.5402C134.547 10.5408 134.547 10.5416 134.547 10.5427C134.547 10.5447 134.547 10.5476 134.547 10.5512C134.547 10.5586 134.547 10.5692 134.547 10.5829C134.547 10.6104 134.547 10.6502 134.548 10.701C134.549 10.8028 134.551 10.949 134.554 11.1293C134.562 11.4895 134.577 11.9881 134.607 12.5415C134.665 13.6178 134.785 15.007 135.052 15.9641L136.979 15.4265ZM135.547 10.5391C136.547 10.5391 136.547 10.5391 136.547 10.5392C136.547 10.5391 136.547 10.5392 136.547 10.5392C136.547 10.5391 136.547 10.5391 136.547 10.5389C136.547 10.5387 136.547 10.5382 136.547 10.5376C136.547 10.5362 136.547 10.534 136.547 10.5311C136.547 10.5251 136.547 10.5159 136.547 10.5036C136.547 10.4789 136.547 10.442 136.548 10.394C136.549 10.298 136.55 10.1581 136.554 9.98473C136.561 9.63745 136.575 9.15825 136.604 8.63015C136.663 7.54091 136.777 6.35641 136.977 5.65753L135.054 5.10809C134.785 6.04984 134.665 7.44346 134.607 8.5222C134.577 9.07808 134.562 9.58033 134.554 9.9435C134.551 10.1253 134.549 10.2729 134.548 10.3756C134.547 10.4269 134.547 10.4671 134.547 10.4948C134.547 10.5086 134.547 10.5194 134.547 10.5268C134.547 10.5305 134.547 10.5334 134.547 10.5355C134.547 10.5365 134.547 10.5373 134.547 10.5379C134.547 10.5382 134.547 10.5384 134.547 10.5386C134.547 10.5387 134.547 10.5388 134.547 10.5389C134.547 10.539 134.547 10.5391 135.547 10.5391ZM136.986 5.62535C137.132 5.03911 137.602 4.57754 138.143 4.43637L137.638 2.50113C136.383 2.82871 135.368 3.85152 135.045 5.14028L136.986 5.62535ZM138.159 4.43195C138.472 4.34468 139.112 4.26133 139.982 4.19485C140.823 4.13056 141.798 4.08719 142.731 4.05811C143.663 4.02908 144.543 4.01454 145.191 4.00726C145.515 4.00363 145.781 4.00181 145.965 4.0009C146.057 4.00045 146.128 4.00022 146.177 4.00011C146.201 4.00006 146.22 4.00003 146.232 4.00001C146.238 4.00001 146.243 4 146.246 4C146.247 4 146.248 4 146.249 4C146.249 4 146.25 4 146.25 4C146.25 4 146.25 4 146.25 4C146.25 4 146.25 4 146.25 3C146.25 2 146.25 2 146.25 2C146.25 2 146.25 2 146.25 2C146.249 2 146.249 2 146.249 2C146.248 2 146.246 2 146.245 2C146.241 2 146.236 2.00001 146.23 2.00002C146.217 2.00003 146.197 2.00006 146.172 2.00012C146.122 2.00023 146.049 2.00047 145.955 2.00093C145.767 2.00185 145.497 2.0037 145.169 2.00739C144.512 2.01476 143.618 2.02951 142.669 2.05908C141.722 2.08859 140.713 2.13311 139.829 2.20066C138.974 2.26602 138.149 2.35845 137.622 2.50555L138.159 4.43195ZM146.25 3C146.25 4 146.25 4 146.25 4C146.25 4 146.25 4 146.25 4C146.25 4 146.251 4 146.251 4C146.252 4 146.253 4 146.254 4C146.257 4 146.262 4.00001 146.268 4.00001C146.28 4.00003 146.299 4.00006 146.323 4.00011C146.371 4.00022 146.442 4.00045 146.534 4.0009C146.717 4.00181 146.981 4.00363 147.303 4.00726C147.947 4.01454 148.823 4.02908 149.749 4.0581C150.677 4.08718 151.648 4.13055 152.485 4.19482C153.351 4.26128 153.988 4.34459 154.302 4.43195L154.839 2.50555C154.312 2.35853 153.49 2.26606 152.638 2.20069C151.758 2.13313 150.754 2.0886 149.812 2.05908C148.868 2.02952 147.978 2.01476 147.325 2.00739C146.998 2.0037 146.73 2.00185 146.544 2.00093C146.45 2.00047 146.377 2.00023 146.327 2.00012C146.302 2.00006 146.283 2.00003 146.27 2.00002C146.264 2.00001 146.259 2 146.255 2C146.254 2 146.252 2 146.251 2C146.251 2 146.251 2 146.25 2C146.25 2 146.25 2 146.25 2C146.25 2 146.25 2 146.25 3ZM154.318 4.43637C154.859 4.57754 155.329 5.03911 155.475 5.62535L157.415 5.14028C157.093 3.85152 156.078 2.82871 154.823 2.50113L154.318 4.43637ZM144.558 14.5717L150.105 11.4077L149.114 9.67044L143.567 12.8345L144.558 14.5717ZM150.105 9.67044L144.558 6.50638L143.567 8.24362L149.114 11.4077L150.105 9.67044ZM143.062 7.375V13.7031H145.062V7.375H143.062Z" fill="black"/>
</svg>
